<svg width="339" height="95" viewBox="0 0 339 95" fill="none" xmlns="http://www.w3.org/2000/svg">
<path d="M79.454 90.6525C79.4046 90.6548 79.3552 90.6467 79.309 90.6286C79.2629 90.6105 79.221 90.5829 79.1862 90.5476C79.152 90.5128 79.1252 90.4715 79.1072 90.4261C79.0893 90.3806 79.0806 90.332 79.0818 90.2832V80.7357H75.981C75.9316 80.7376 75.8823 80.7293 75.8363 80.7112C75.7902 80.6931 75.7484 80.6656 75.7135 80.6305C75.6785 80.5954 75.6512 80.5534 75.6331 80.5072C75.6151 80.4609 75.6068 80.4115 75.6087 80.3618V79.6825C75.6053 79.6306 75.6129 79.5787 75.6309 79.53C75.6489 79.4812 75.6769 79.4369 75.7131 79.3998C75.7476 79.3637 75.7892 79.3352 75.8354 79.3164C75.8816 79.2975 75.9312 79.2887 75.981 79.2904H83.7715C83.8234 79.2882 83.8752 79.2967 83.9237 79.3156C83.9721 79.3344 84.0161 79.3631 84.053 79.3998C84.0883 79.4375 84.1158 79.482 84.1337 79.5305C84.1516 79.5791 84.1597 79.6308 84.1574 79.6825V80.3664C84.1589 80.416 84.1504 80.4654 84.1325 80.5116C84.1145 80.5578 84.0875 80.5999 84.053 80.6354C84.0159 80.6716 83.9717 80.6995 83.9233 80.7176C83.8748 80.7357 83.8231 80.7434 83.7715 80.7403H80.7071V90.2878C80.7084 90.337 80.6994 90.3861 80.6806 90.4316C80.6619 90.4772 80.6337 90.5183 80.5981 90.5522C80.5612 90.5886 80.517 90.6167 80.4685 90.6348C80.42 90.6529 80.3682 90.6605 80.3166 90.6571L79.454 90.6525Z" fill="#7E62E1"/>
<path d="M86.0323 90.6525C85.9829 90.6548 85.9335 90.6466 85.8874 90.6286C85.8412 90.6105 85.7994 90.5829 85.7645 90.5476C85.7303 90.5128 85.7035 90.4715 85.6856 90.426C85.6676 90.3806 85.659 90.332 85.6601 90.2832V79.5046C85.6586 79.455 85.6671 79.4057 85.685 79.3595C85.703 79.3132 85.73 79.2711 85.7645 79.2356C85.7994 79.2003 85.8412 79.1727 85.8874 79.1547C85.9335 79.1366 85.9829 79.1285 86.0323 79.1308H86.8405C86.8914 79.1272 86.9426 79.1347 86.9904 79.1528C87.0382 79.1709 87.0815 79.1991 87.1174 79.2356C87.1825 79.3096 87.2167 79.406 87.2127 79.5046V83.2844C87.5229 82.8761 87.928 82.5503 88.3926 82.3357C88.8572 82.1211 89.3671 82.0242 89.8777 82.0534C90.5051 82.0307 91.1258 82.1889 91.6664 82.5093C92.1547 82.8171 92.5416 83.2628 92.7787 83.7905C93.0439 84.3915 93.1741 85.0437 93.1601 85.7009V90.2604C93.1633 90.3576 93.1292 90.4522 93.0647 90.5248C93.0288 90.5613 92.9855 90.5896 92.9377 90.6077C92.8899 90.6258 92.8388 90.6333 92.7878 90.6297H91.9797C91.9302 90.632 91.8808 90.6238 91.8347 90.6058C91.7885 90.5877 91.7467 90.5601 91.7118 90.5248C91.6777 90.49 91.6508 90.4487 91.6329 90.4032C91.615 90.3578 91.6063 90.3092 91.6074 90.2604V85.7602C91.6397 85.1307 91.4446 84.5106 91.0581 84.0139C90.8537 83.7922 90.6024 83.6193 90.3227 83.5081C90.043 83.3968 89.742 83.35 89.4419 83.371C89.1427 83.3586 88.8442 83.4094 88.5658 83.5201C88.2873 83.6308 88.0352 83.7991 87.8256 84.0139C87.6123 84.2545 87.4484 84.535 87.3432 84.8394C87.238 85.1437 87.1937 85.466 87.2127 85.7876V90.2877C87.216 90.3849 87.1818 90.4796 87.1174 90.5522C87.0815 90.5887 87.0382 90.617 86.9904 90.6351C86.9426 90.6532 86.8914 90.6607 86.8405 90.657L86.0323 90.6525Z" fill="#7E62E1"/>
<path d="M99.0576 90.8172C98.5664 90.8418 98.0755 90.7628 97.6165 90.5853C97.1575 90.4078 96.7406 90.1358 96.3927 89.7868C95.701 89.0118 95.3151 88.0097 95.3076 86.969C95.3076 86.8277 95.3076 86.6499 95.3076 86.4265C95.3076 86.203 95.3076 86.0252 95.3076 85.8839C95.3357 85.1777 95.5186 84.4865 95.8433 83.8595C96.1385 83.3021 96.5837 82.8392 97.1281 82.5236C97.7152 82.2037 98.3764 82.0464 99.044 82.0676C99.7654 82.0433 100.479 82.2217 101.105 82.5828C101.665 82.9366 102.107 83.4513 102.372 84.0601C102.682 84.7664 102.837 85.5315 102.826 86.3033V86.5769C102.83 86.6281 102.822 86.6796 102.804 86.7276C102.786 86.7757 102.758 86.8192 102.721 86.855C102.648 86.9204 102.552 86.9547 102.453 86.9508H96.8467V87.0967C96.8624 87.5251 96.9611 87.9463 97.1372 88.3369C97.2993 88.71 97.558 89.0328 97.8863 89.2716C98.224 89.5128 98.6297 89.639 99.044 89.6318C99.3757 89.6427 99.7058 89.5804 100.011 89.4494C100.24 89.3505 100.453 89.2167 100.642 89.0527C100.765 88.9529 100.874 88.8363 100.964 88.7062C101.024 88.6132 101.101 88.5327 101.191 88.4691C101.274 88.4368 101.362 88.4228 101.45 88.428H102.245C102.336 88.4278 102.425 88.4601 102.494 88.5192C102.529 88.5497 102.556 88.5889 102.571 88.633C102.586 88.677 102.59 88.7243 102.581 88.77C102.548 88.9864 102.461 89.1906 102.326 89.3627C102.132 89.6253 101.899 89.8574 101.636 90.0512C101.304 90.2982 100.932 90.4877 100.538 90.612C100.058 90.7596 99.5587 90.8289 99.0576 90.8172V90.8172ZM96.8467 85.8018H101.273V85.7517C101.283 85.3037 101.191 84.8594 101.005 84.4522C100.838 84.0734 100.562 83.7535 100.213 83.5333C99.8632 83.3132 99.4563 83.2029 99.044 83.2166C98.6234 83.2063 98.2092 83.3222 97.8545 83.5494C97.5248 83.777 97.2653 84.093 97.1054 84.4613C96.9267 84.8706 96.8384 85.3139 96.8467 85.7608V85.8018Z" fill="#7E62E1"/>
<path d="M113.603 90.817C112.799 90.8373 112 90.6703 111.27 90.3292C110.622 90.0099 110.095 89.4884 109.767 88.8428C109.387 88.0409 109.207 87.1586 109.241 86.2713V79.6829C109.237 79.6314 109.245 79.5799 109.262 79.5313C109.279 79.4827 109.306 79.4381 109.34 79.4002C109.375 79.3627 109.417 79.3334 109.464 79.3145C109.511 79.2956 109.562 79.2875 109.613 79.2908H110.439C110.491 79.288 110.543 79.2963 110.592 79.3151C110.64 79.334 110.684 79.363 110.721 79.4002C110.756 79.4379 110.783 79.4824 110.801 79.5309C110.819 79.5795 110.827 79.6311 110.825 79.6829V86.2941C110.825 87.3579 111.073 88.1437 111.57 88.6513C112.135 89.1486 112.861 89.4227 113.613 89.4227C114.364 89.4227 115.09 89.1486 115.656 88.6513C116.158 88.1406 116.409 87.3549 116.409 86.2941V79.6829C116.406 79.631 116.413 79.579 116.431 79.5303C116.449 79.4816 116.477 79.4373 116.514 79.4002C116.548 79.364 116.59 79.3356 116.636 79.3168C116.682 79.2979 116.732 79.289 116.781 79.2908H117.621C117.671 79.2899 117.72 79.2991 117.766 79.3179C117.812 79.3367 117.854 79.3647 117.889 79.4002C117.925 79.4379 117.952 79.4824 117.97 79.5309C117.988 79.5795 117.996 79.6311 117.994 79.6829V86.2941C118.028 87.1814 117.847 88.0637 117.467 88.8656C117.14 89.5086 116.617 90.0295 115.973 90.352C115.23 90.6907 114.419 90.8499 113.603 90.817V90.817Z" fill="#7E62E1"/>
<path d="M121.058 90.6526C121.009 90.6545 120.96 90.6463 120.915 90.6284C120.869 90.6106 120.827 90.5835 120.792 90.5489C120.757 90.5143 120.73 90.4729 120.712 90.4272C120.693 90.3815 120.685 90.3325 120.686 90.2833V79.5048C120.684 79.4551 120.692 79.4057 120.71 79.3594C120.728 79.3132 120.756 79.2712 120.791 79.2361C120.826 79.201 120.867 79.1735 120.913 79.1554C120.959 79.1373 121.009 79.129 121.058 79.1309H121.816C121.867 79.127 121.917 79.1344 121.964 79.1525C122.011 79.1707 122.054 79.1991 122.089 79.2357C122.123 79.2715 122.149 79.3137 122.166 79.36C122.183 79.4062 122.191 79.4555 122.189 79.5048V90.2833C122.191 90.3319 122.183 90.3803 122.166 90.4258C122.148 90.4712 122.122 90.5127 122.089 90.5477C122.054 90.5844 122.011 90.6128 121.964 90.631C121.917 90.6491 121.867 90.6565 121.816 90.6526H121.058Z" fill="#7E62E1"/>
<path d="M128.086 90.6529C127.573 90.6761 127.064 90.5562 126.615 90.3064C126.242 90.075 125.953 89.7277 125.793 89.317C125.611 88.8323 125.523 88.3168 125.535 87.7987V83.5129H124.291C124.241 83.5148 124.192 83.5064 124.146 83.4883C124.1 83.4702 124.058 83.4427 124.023 83.4076C123.988 83.3725 123.961 83.3305 123.943 83.2843C123.925 83.2381 123.917 83.1886 123.918 83.139V82.5873C123.917 82.5377 123.925 82.4882 123.943 82.442C123.961 82.3957 123.988 82.3538 124.023 82.3186C124.058 82.2835 124.1 82.2561 124.146 82.238C124.192 82.2198 124.241 82.2115 124.291 82.2134H125.553V79.5051C125.551 79.4555 125.559 79.406 125.577 79.3598C125.595 79.3136 125.623 79.2716 125.658 79.2365C125.693 79.2014 125.734 79.1739 125.78 79.1558C125.826 79.1377 125.876 79.1293 125.925 79.1312H126.683C126.733 79.1289 126.782 79.1371 126.828 79.1551C126.874 79.1732 126.916 79.2008 126.951 79.2361C126.986 79.2716 127.013 79.3137 127.031 79.3599C127.049 79.4062 127.057 79.4555 127.056 79.5051V82.2134H129.058C129.109 82.2107 129.159 82.2186 129.207 82.2366C129.255 82.2547 129.298 82.2825 129.335 82.3183C129.399 82.3925 129.433 82.4887 129.43 82.5873V83.139C129.433 83.2376 129.399 83.3338 129.335 83.408C129.298 83.4438 129.255 83.4716 129.207 83.4896C129.159 83.5077 129.109 83.5156 129.058 83.5129H127.056V87.6847C127.034 88.1004 127.123 88.5144 127.314 88.8839C127.41 89.0358 127.545 89.1587 127.705 89.239C127.865 89.3194 128.044 89.3542 128.222 89.3398H129.208C129.257 89.3384 129.307 89.3474 129.353 89.3662C129.399 89.3851 129.441 89.4133 129.475 89.4492C129.51 89.4841 129.536 89.5254 129.554 89.5708C129.572 89.6162 129.581 89.6648 129.58 89.7137V90.3019C129.581 90.3507 129.572 90.3993 129.554 90.4447C129.536 90.4901 129.51 90.5315 129.475 90.5663C129.441 90.6016 129.399 90.6292 129.353 90.6473C129.306 90.6653 129.257 90.6735 129.208 90.6712L128.086 90.6529Z" fill="#7E62E1"/>
<path d="M131.577 80.6404C131.528 80.6424 131.479 80.634 131.433 80.6159C131.387 80.5978 131.345 80.5703 131.31 80.5352C131.275 80.5001 131.248 80.4581 131.23 80.4119C131.211 80.3657 131.203 80.3162 131.205 80.2666V79.3912C131.204 79.2885 131.241 79.1891 131.31 79.113C131.344 79.0765 131.385 79.0475 131.432 79.0279C131.478 79.0083 131.527 78.9985 131.577 78.999H132.594C132.646 78.9988 132.697 79.0088 132.744 79.0283C132.792 79.0479 132.835 79.0767 132.871 79.113C132.908 79.149 132.938 79.1923 132.957 79.2401C132.977 79.288 132.986 79.3394 132.985 79.3912V80.2666C132.986 80.317 132.977 80.3672 132.958 80.4137C132.938 80.4601 132.909 80.5017 132.871 80.5356C132.795 80.6045 132.697 80.6419 132.594 80.6404H131.577ZM131.709 90.6712C131.66 90.6731 131.611 90.6649 131.565 90.6471C131.52 90.6292 131.478 90.6022 131.443 90.5676C131.408 90.5329 131.381 90.4915 131.363 90.4458C131.344 90.4001 131.335 90.3512 131.337 90.3019V82.5873C131.334 82.5376 131.343 82.488 131.361 82.4417C131.379 82.3954 131.406 82.3533 131.441 82.3183C131.477 82.2837 131.518 82.2565 131.564 82.2385C131.611 82.2205 131.66 82.212 131.709 82.2134H132.485C132.534 82.2123 132.582 82.221 132.628 82.2391C132.673 82.2571 132.714 82.284 132.749 82.3183C132.784 82.3533 132.811 82.3954 132.829 82.4417C132.847 82.488 132.855 82.5376 132.853 82.5873V90.2837C132.854 90.3325 132.846 90.3811 132.828 90.4265C132.81 90.4719 132.783 90.5131 132.748 90.5476C132.714 90.5822 132.673 90.6093 132.628 90.6274C132.582 90.6455 132.534 90.6542 132.485 90.653L131.709 90.6712Z" fill="#7E62E1"/>
<path d="M135.827 90.6528C135.778 90.654 135.73 90.6453 135.684 90.6272C135.639 90.6091 135.598 90.5819 135.564 90.5474C135.529 90.5129 135.502 90.4716 135.484 90.4263C135.466 90.3809 135.458 90.3323 135.459 90.2835V82.5871C135.457 82.5374 135.465 82.4878 135.483 82.4415C135.501 82.3952 135.528 82.3531 135.563 82.3181C135.598 82.2838 135.639 82.2569 135.684 82.2389C135.73 82.2208 135.778 82.2121 135.827 82.2133H136.548C136.597 82.2121 136.645 82.2208 136.691 82.2389C136.736 82.2569 136.777 82.2838 136.812 82.3181C136.848 82.3529 136.876 82.3948 136.894 82.4411C136.913 82.4874 136.922 82.5371 136.921 82.5871V83.1571C137.167 82.8198 137.487 82.5437 137.856 82.35C138.28 82.1424 138.747 82.0408 139.218 82.0537C139.749 82.0102 140.28 82.1294 140.742 82.3956C141.204 82.6618 141.575 83.0624 141.806 83.5446C142.055 83.0868 142.43 82.7102 142.886 82.4595C143.379 82.1823 143.937 82.0422 144.502 82.0537C145.037 82.0459 145.565 82.1795 146.032 82.4412C146.503 82.7146 146.879 83.1248 147.113 83.6176C147.396 84.2357 147.532 84.9118 147.508 85.5918V90.2835C147.509 90.3327 147.5 90.3817 147.482 90.4274C147.464 90.473 147.436 90.5145 147.401 90.5491C147.367 90.5837 147.325 90.6108 147.279 90.6286C147.234 90.6464 147.185 90.6547 147.136 90.6528H146.377C146.328 90.6551 146.279 90.6469 146.232 90.6289C146.186 90.6108 146.144 90.5832 146.11 90.5479C146.075 90.5131 146.049 90.4718 146.031 90.4263C146.013 90.3809 146.004 90.3323 146.005 90.2835V85.724C146.028 85.2333 145.939 84.7438 145.746 84.2924C145.604 83.9774 145.359 83.7202 145.052 83.5629C144.754 83.4207 144.428 83.3489 144.098 83.3531C143.802 83.357 143.51 83.4287 143.245 83.5629C142.933 83.7223 142.68 83.978 142.523 84.2924C142.315 84.7396 142.218 85.2309 142.242 85.724V90.2835C142.243 90.3323 142.234 90.3809 142.216 90.4263C142.198 90.4718 142.171 90.5131 142.137 90.5479C142.102 90.5832 142.06 90.6108 142.014 90.6289C141.968 90.6469 141.919 90.6551 141.869 90.6528H141.111C141.062 90.6547 141.013 90.6464 140.968 90.6286C140.922 90.6108 140.88 90.5837 140.845 90.5491C140.81 90.5145 140.783 90.473 140.765 90.4274C140.746 90.3817 140.738 90.3327 140.739 90.2835V85.724C140.763 85.2313 140.668 84.7401 140.462 84.2924C140.311 83.9782 140.063 83.722 139.754 83.5629C139.47 83.4258 139.16 83.3541 138.846 83.3531C138.547 83.3563 138.254 83.428 137.988 83.5629C137.677 83.7226 137.425 83.9783 137.27 84.2924C137.06 84.7323 136.961 85.2181 136.984 85.7058V90.2652C136.986 90.3145 136.977 90.3634 136.958 90.4091C136.94 90.4548 136.913 90.4962 136.878 90.5309C136.843 90.5655 136.801 90.5925 136.756 90.6104C136.71 90.6282 136.661 90.6364 136.612 90.6345L135.827 90.6528Z" fill="#7E62E1"/>
<path d="M152.379 90.8168C151.871 90.8232 151.368 90.7125 150.908 90.4931C150.488 90.2917 150.122 89.9914 149.841 89.6177C149.574 89.2551 149.432 88.8148 149.437 88.3638C149.429 88.0142 149.507 87.668 149.666 87.3566C149.824 87.0452 150.058 86.7786 150.345 86.5811C151.048 86.0971 151.859 85.7963 152.706 85.7057L155.117 85.3637V84.9078C155.128 84.6844 155.094 84.4611 155.016 84.2517C154.938 84.0423 154.818 83.8513 154.663 83.6904C154.258 83.3534 153.738 83.1897 153.215 83.2344C152.807 83.2185 152.404 83.3197 152.052 83.5262C151.768 83.7009 151.546 83.9631 151.421 84.274C151.399 84.3469 151.354 84.4106 151.293 84.4551C151.231 84.4996 151.157 84.5225 151.081 84.5202H150.354C150.305 84.5234 150.255 84.5157 150.209 84.4976C150.163 84.4794 150.121 84.4514 150.087 84.4153C150.028 84.3433 149.998 84.2528 150 84.16C150.014 83.9488 150.078 83.7439 150.187 83.5627C150.33 83.2951 150.525 83.0581 150.759 82.8651C151.054 82.6161 151.391 82.4202 151.753 82.2861C152.228 82.1194 152.73 82.0407 153.233 82.0536C153.787 82.0381 154.339 82.123 154.863 82.3043C155.258 82.4421 155.616 82.6717 155.907 82.9746C156.157 83.2514 156.345 83.5797 156.456 83.9366C156.568 84.2873 156.625 84.6534 156.624 85.0217V90.2834C156.625 90.3326 156.617 90.3816 156.598 90.4273C156.58 90.4729 156.553 90.5144 156.518 90.549C156.483 90.5836 156.441 90.6107 156.395 90.6285C156.35 90.6463 156.301 90.6546 156.252 90.6527H155.512C155.461 90.6569 155.41 90.6497 155.362 90.6316C155.314 90.6134 155.27 90.5848 155.235 90.5478C155.171 90.4752 155.136 90.3805 155.14 90.2834V89.5812C154.977 89.7985 154.786 89.9932 154.572 90.1603C154.298 90.3632 153.99 90.5174 153.664 90.6162C153.249 90.7525 152.816 90.8203 152.379 90.8168ZM152.72 89.5994C153.14 89.6033 153.556 89.5064 153.932 89.3168C154.304 89.1191 154.606 88.8099 154.795 88.4322C155.022 87.9628 155.131 87.4446 155.112 86.923V86.4671L153.237 86.7407C152.629 86.7976 152.039 86.9841 151.508 87.2878C151.334 87.3825 151.189 87.522 151.087 87.6919C150.984 87.8618 150.929 88.056 150.927 88.2544C150.916 88.5296 151.011 88.7984 151.19 89.0067C151.373 89.2161 151.608 89.3734 151.871 89.4627C152.144 89.5559 152.431 89.6021 152.72 89.5994V89.5994Z" fill="#7E62E1"/>
<path d="M162.367 90.6528C161.854 90.676 161.345 90.5561 160.896 90.3063C160.523 90.0749 160.234 89.7276 160.075 89.3169C159.892 88.8322 159.804 88.3167 159.816 87.7986V83.5127H158.554C158.504 83.5147 158.455 83.5063 158.409 83.4882C158.363 83.4701 158.321 83.4426 158.286 83.4075C158.251 83.3724 158.224 83.3304 158.206 83.2842C158.188 83.238 158.18 83.1885 158.181 83.1389V82.5872C158.18 82.5376 158.188 82.4881 158.206 82.4419C158.224 82.3956 158.251 82.3536 158.286 82.3185C158.321 82.2834 158.363 82.256 158.409 82.2378C158.455 82.2197 158.504 82.2114 158.554 82.2133H159.816V79.505C159.814 79.4554 159.822 79.4059 159.84 79.3597C159.858 79.3135 159.886 79.2715 159.921 79.2363C159.956 79.2012 159.997 79.1738 160.043 79.1557C160.089 79.1376 160.139 79.1292 160.188 79.1311H160.946C160.996 79.1292 161.045 79.1376 161.091 79.1557C161.137 79.1738 161.179 79.2012 161.214 79.2363C161.249 79.2715 161.276 79.3135 161.294 79.3597C161.312 79.4059 161.32 79.4554 161.319 79.505V82.2133H163.334C163.385 82.2108 163.436 82.2189 163.484 82.2369C163.531 82.255 163.575 82.2826 163.611 82.3182C163.676 82.3924 163.71 82.4886 163.707 82.5872V83.1389C163.71 83.2375 163.676 83.3337 163.611 83.4079C163.575 83.4435 163.531 83.4711 163.484 83.4891C163.436 83.5072 163.385 83.5152 163.334 83.5127H161.332V87.6846C161.311 88.1003 161.4 88.5143 161.591 88.8838C161.686 89.0357 161.822 89.1586 161.982 89.2389C162.142 89.3193 162.321 89.3541 162.499 89.3397H163.484C163.583 89.3397 163.678 89.3791 163.747 89.4492C163.817 89.5193 163.856 89.6144 163.856 89.7136V90.3018C163.858 90.3511 163.849 90.4001 163.83 90.4456C163.811 90.4912 163.783 90.5323 163.747 90.5662C163.713 90.6014 163.672 90.629 163.627 90.647C163.582 90.6651 163.533 90.6733 163.484 90.6711L162.367 90.6528Z" fill="#7E62E1"/>
<path d="M168.977 90.8171C168.486 90.8426 167.995 90.764 167.536 90.5864C167.077 90.4089 166.66 90.1364 166.312 89.7867C165.619 89.0128 165.233 88.01 165.227 86.9689C165.227 86.8276 165.227 86.6498 165.227 86.4264C165.227 86.203 165.227 86.0251 165.227 85.8838C165.255 85.1776 165.438 84.4864 165.763 83.8594C166.057 83.3011 166.502 82.8379 167.048 82.5235C167.635 82.2037 168.296 82.0463 168.964 82.0675C169.685 82.0437 170.399 82.2221 171.025 82.5827C171.585 82.9365 172.026 83.4512 172.291 84.06C172.602 84.7663 172.756 85.5314 172.745 86.3033V86.5768C172.748 86.6279 172.74 86.679 172.722 86.7269C172.704 86.7748 172.677 86.8184 172.641 86.855C172.567 86.9199 172.471 86.9542 172.373 86.9507H166.762V87.0966C166.78 87.5247 166.878 87.9456 167.052 88.3368C167.216 88.7105 167.476 89.0333 167.806 89.2715C168.143 89.5133 168.549 89.6396 168.964 89.6317C169.295 89.6426 169.625 89.5803 169.931 89.4493C170.159 89.3493 170.372 89.2156 170.562 89.0526C170.684 88.9517 170.792 88.8352 170.884 88.7061C170.944 88.6132 171.021 88.5327 171.111 88.469C171.193 88.4367 171.282 88.4227 171.37 88.428H172.164C172.256 88.4277 172.344 88.46 172.414 88.5192C172.449 88.5496 172.476 88.5889 172.491 88.6329C172.506 88.6769 172.509 88.7242 172.5 88.7699C172.468 88.9871 172.379 89.1917 172.241 89.3627C172.05 89.6263 171.818 89.8585 171.556 90.0511C171.223 90.2981 170.852 90.4876 170.457 90.6119C169.978 90.7596 169.478 90.8288 168.977 90.8171V90.8171ZM166.762 85.8017H171.193V85.7516C171.2 85.3038 171.109 84.86 170.925 84.4521C170.758 84.0734 170.482 83.7534 170.132 83.5332C169.783 83.3131 169.376 83.2028 168.964 83.2165C168.543 83.2048 168.128 83.3208 167.774 83.5494C167.443 83.7769 167.182 84.0927 167.021 84.4612C166.842 84.8705 166.753 85.3138 166.762 85.7607V85.8017Z" fill="#7E62E1"/>
<path d="M179.628 90.6525C179.578 90.6564 179.527 90.649 179.48 90.6308C179.433 90.6127 179.391 90.5843 179.356 90.5476C179.322 90.5126 179.296 90.4711 179.279 90.4256C179.262 90.3802 179.254 90.3317 179.256 90.2832V79.6825C179.253 79.631 179.26 79.5795 179.277 79.5309C179.294 79.4823 179.321 79.4377 179.356 79.3998C179.39 79.3623 179.432 79.333 179.48 79.3141C179.527 79.2952 179.577 79.2871 179.628 79.2904H183.31C184.231 79.2521 185.149 79.4252 185.993 79.7965C186.645 80.1027 187.171 80.6264 187.482 81.2783C187.816 82.0376 187.981 82.8604 187.968 83.6902C187.968 84.1781 187.968 84.6021 187.968 84.9714C187.968 85.3407 187.968 85.7648 187.968 86.2389C187.976 87.0897 187.807 87.9329 187.473 88.7147C187.177 89.3589 186.662 89.8762 186.02 90.1737C185.19 90.5255 184.292 90.6889 183.392 90.6525H179.628ZM180.84 89.2846H183.31C183.918 89.3093 184.525 89.2036 185.09 88.9746C185.523 88.7782 185.867 88.4249 186.052 87.9852C186.274 87.4115 186.38 86.7994 186.365 86.1842C186.388 85.8605 186.397 85.5733 186.397 85.3316V84.6021C186.397 84.3559 186.397 84.0778 186.365 83.7632C186.343 82.7145 186.098 81.9394 185.621 81.4379C185.144 80.9363 184.35 80.681 183.233 80.681H180.854L180.84 89.2846Z" fill="#7E62E1"/>
<path d="M193.752 90.8172C193.26 90.8421 192.768 90.7633 192.309 90.5858C191.849 90.4084 191.431 90.1362 191.082 89.7868C190.391 89.0123 190.006 88.0095 190.002 86.969C190.002 86.8277 190.002 86.6499 190.002 86.4264C190.002 86.203 190.002 86.0252 190.002 85.8839C190.026 85.1777 190.208 84.486 190.533 83.8595C190.828 83.3021 191.274 82.8392 191.818 82.5236C192.405 82.2044 193.066 82.047 193.734 82.0676C194.455 82.0433 195.169 82.2217 195.795 82.5828C196.355 82.9366 196.796 83.4513 197.062 84.0601C197.372 84.7663 197.527 85.5315 197.516 86.3033V86.5769C197.519 86.6284 197.51 86.68 197.492 86.728C197.473 86.7761 197.444 86.8194 197.407 86.855C197.334 86.9197 197.24 86.954 197.143 86.9508H191.541V87.0967C191.559 87.5248 191.657 87.9456 191.832 88.3369C191.994 88.71 192.252 89.0327 192.581 89.2715C192.919 89.5122 193.324 89.6384 193.738 89.6317C194.072 89.6434 194.403 89.5811 194.71 89.4494C194.938 89.3505 195.149 89.2167 195.336 89.0527C195.459 88.9514 195.569 88.835 195.663 88.7062C195.722 88.6122 195.799 88.5314 195.89 88.4691C195.972 88.4359 196.061 88.4219 196.149 88.428H196.93C197.021 88.427 197.11 88.4594 197.18 88.5192C197.215 88.5495 197.242 88.5885 197.258 88.6325C197.274 88.6765 197.278 88.7239 197.27 88.77C197.234 88.9859 197.145 89.1895 197.012 89.3627C196.818 89.6264 196.585 89.8586 196.322 90.0512C195.989 90.2981 195.618 90.4877 195.223 90.612C194.747 90.7592 194.25 90.8285 193.752 90.8172V90.8172ZM191.536 85.8018H195.963V85.7516C195.972 85.3043 195.882 84.8604 195.7 84.4522C195.531 84.0824 195.264 83.7667 194.928 83.5403C194.67 83.3649 194.377 83.2488 194.069 83.2C193.762 83.1512 193.447 83.171 193.148 83.2581C192.849 83.3451 192.573 83.4972 192.339 83.7036C192.105 83.91 191.92 84.1656 191.795 84.4522C191.616 84.8615 191.528 85.3048 191.536 85.7516V85.8018Z" fill="#7E62E1"/>
<path d="M203.095 94.2273C202.477 94.2474 201.86 94.1484 201.279 93.9355C200.869 93.7768 200.495 93.5364 200.18 93.2288C199.943 92.9895 199.752 92.7081 199.617 92.399C199.521 92.1915 199.458 91.9698 199.431 91.7424C199.424 91.691 199.43 91.6386 199.448 91.59C199.466 91.5414 199.496 91.4982 199.536 91.4643C199.608 91.3947 199.704 91.3556 199.804 91.3549H200.58C200.665 91.3502 200.749 91.3725 200.82 91.4187C200.903 91.4896 200.961 91.5857 200.984 91.6923C201.061 91.8833 201.158 92.0653 201.274 92.2349C201.426 92.4561 201.63 92.635 201.869 92.7546C202.225 92.9181 202.614 92.9931 203.004 92.9735C203.439 92.9863 203.872 92.9151 204.28 92.7638C204.617 92.6288 204.894 92.3762 205.061 92.0525C205.262 91.6146 205.354 91.1342 205.329 90.6527V89.5493C205.053 89.8989 204.707 90.1851 204.312 90.3883C203.818 90.6247 203.274 90.7388 202.727 90.7211C202.192 90.7365 201.661 90.6273 201.175 90.402C200.76 90.2037 200.397 89.91 200.117 89.5448C199.838 89.1714 199.63 88.7494 199.504 88.3C199.367 87.825 199.288 87.3351 199.268 86.841C199.268 86.5355 199.268 86.2392 199.268 85.9291C199.287 85.435 199.367 84.945 199.504 84.4701C199.631 84.0183 199.839 83.5935 200.117 83.2163C200.396 82.8471 200.758 82.5501 201.175 82.35C201.662 82.1284 202.193 82.0208 202.727 82.0354C203.284 82.0151 203.837 82.1375 204.334 82.391C204.744 82.6157 205.1 82.9268 205.379 83.3029V82.6053C205.377 82.5027 205.414 82.4033 205.483 82.3272C205.517 82.2902 205.559 82.2609 205.605 82.2413C205.651 82.2216 205.701 82.212 205.751 82.2132H206.495C206.598 82.2139 206.695 82.2548 206.768 82.3272C206.805 82.3631 206.834 82.4064 206.854 82.4543C206.873 82.5021 206.883 82.5536 206.881 82.6053V90.4749C206.892 91.1374 206.769 91.7952 206.518 92.4081C206.276 92.9725 205.854 93.4406 205.32 93.7395C204.633 94.0937 203.866 94.2619 203.095 94.2273V94.2273ZM203.063 89.4217C203.527 89.4449 203.985 89.3135 204.366 89.0478C204.691 88.8108 204.945 88.4892 205.102 88.1177C205.254 87.7533 205.339 87.3638 205.351 86.9687C205.351 86.8182 205.351 86.6313 205.351 86.4079C205.351 86.1845 205.351 85.9975 205.351 85.8471C205.339 85.4504 205.254 85.0594 205.102 84.6935C204.95 84.3195 204.699 83.9945 204.375 83.7543C203.994 83.4886 203.536 83.3571 203.072 83.3804C202.613 83.3588 202.159 83.4868 201.778 83.7452C201.456 83.9868 201.214 84.3205 201.084 84.7026C200.942 85.114 200.861 85.5442 200.843 85.9793C200.843 86.2574 200.843 86.5447 200.843 86.8365C200.861 87.2716 200.942 87.7017 201.084 88.1131C201.216 88.494 201.458 88.8272 201.778 89.0706C202.158 89.3223 202.609 89.4453 203.063 89.4217V89.4217Z" fill="#7E62E1"/>
<path d="M209.882 90.6527C209.834 90.6539 209.785 90.6452 209.74 90.6271C209.695 90.609 209.654 90.5819 209.62 90.5473C209.585 90.5128 209.558 90.4715 209.54 90.4262C209.522 90.3808 209.513 90.3322 209.515 90.2834V82.6053C209.513 82.5542 209.521 82.5034 209.539 82.4556C209.557 82.4078 209.584 82.3642 209.619 82.3271C209.653 82.2907 209.693 82.2618 209.739 82.2422C209.784 82.2225 209.833 82.2126 209.882 82.2131H210.627C210.678 82.2125 210.729 82.2223 210.777 82.2417C210.825 82.2612 210.868 82.2901 210.904 82.3266C210.941 82.3632 210.97 82.4066 210.989 82.4545C211.008 82.5023 211.018 82.5536 211.017 82.6053V83.3165C211.228 82.9539 211.545 82.6656 211.925 82.4913C212.352 82.295 212.818 82.1999 213.287 82.2131H213.918C213.968 82.2112 214.017 82.2196 214.063 82.2377C214.109 82.2558 214.151 82.2833 214.186 82.3184C214.221 82.3535 214.248 82.3955 214.266 82.4417C214.284 82.4879 214.293 82.5374 214.291 82.587V83.2527C214.293 83.301 214.284 83.3491 214.266 83.3939C214.248 83.4387 214.221 83.4791 214.186 83.5126C214.112 83.5776 214.017 83.6118 213.918 83.6083H212.947C212.697 83.5963 212.448 83.6353 212.214 83.7231C211.98 83.8109 211.766 83.9456 211.585 84.119C211.415 84.3023 211.283 84.5176 211.197 84.7523C211.11 84.9871 211.071 85.2367 211.081 85.4868V90.2606C211.082 90.3099 211.073 90.3589 211.055 90.4045C211.036 90.45 211.008 90.4911 210.972 90.525C210.935 90.5602 210.892 90.5875 210.844 90.6055C210.797 90.6236 210.746 90.6318 210.695 90.6299L209.882 90.6527Z" fill="#7E62E1"/>
<path d="M219.067 90.8172C218.575 90.8421 218.083 90.7633 217.623 90.5858C217.163 90.4084 216.746 90.1362 216.397 89.7868C215.705 89.0123 215.321 88.0095 215.317 86.969C215.317 86.8277 215.317 86.6499 215.317 86.4264C215.317 86.203 215.317 86.0252 215.317 85.8839C215.341 85.1777 215.523 84.486 215.848 83.8595C216.143 83.3021 216.588 82.8392 217.133 82.5236C217.72 82.2044 218.381 82.047 219.048 82.0676C219.77 82.0433 220.484 82.2217 221.11 82.5828C221.67 82.9366 222.111 83.4513 222.376 84.0601C222.689 84.7656 222.844 85.5313 222.83 86.3033V86.5769C222.833 86.628 222.825 86.6791 222.807 86.727C222.789 86.7749 222.761 86.8185 222.726 86.855C222.652 86.9192 222.556 86.9534 222.458 86.9508H216.851V87.0967C216.869 87.5248 216.968 87.9456 217.142 88.3369C217.304 88.7115 217.564 89.0347 217.895 89.2715C218.231 89.5127 218.636 89.639 219.048 89.6317C219.382 89.6434 219.713 89.5811 220.02 89.4494C220.249 89.3494 220.462 89.2157 220.651 89.0527C220.772 88.9503 220.88 88.834 220.973 88.7062C221.032 88.6122 221.109 88.5314 221.2 88.4691C221.282 88.4359 221.371 88.4219 221.459 88.428H222.249C222.341 88.427 222.429 88.4594 222.499 88.5192C222.534 88.5495 222.561 88.5885 222.577 88.6325C222.593 88.6765 222.598 88.7239 222.59 88.77C222.553 88.9859 222.464 89.1895 222.331 89.3627C222.137 89.6264 221.905 89.8586 221.641 90.0512C221.309 90.2991 220.937 90.4887 220.542 90.612C220.065 90.7597 219.566 90.829 219.067 90.8172V90.8172ZM216.851 85.8018H221.278V85.7516C221.287 85.3043 221.197 84.8604 221.014 84.4522C220.848 84.0827 220.582 83.767 220.247 83.5403C219.889 83.3136 219.472 83.1978 219.048 83.2075C218.629 83.1964 218.216 83.3124 217.864 83.5403C217.531 83.7663 217.27 84.0826 217.11 84.4522C216.931 84.8615 216.843 85.3048 216.851 85.7516V85.8018Z" fill="#7E62E1"/>
<path d="M228.328 90.8172C227.836 90.8421 227.344 90.7633 226.885 90.5858C226.425 90.4084 226.007 90.1362 225.659 89.7868C224.967 89.0123 224.582 88.0095 224.578 86.969C224.578 86.8277 224.578 86.6499 224.578 86.4264C224.578 86.203 224.578 86.0252 224.578 85.8839C224.602 85.1777 224.784 84.486 225.109 83.8595C225.404 83.3021 225.85 82.8392 226.394 82.5236C226.981 82.2044 227.642 82.047 228.31 82.0676C229.031 82.0433 229.745 82.2217 230.371 82.5828C230.931 82.9366 231.373 83.4513 231.638 84.0601C231.95 84.7656 232.105 85.5313 232.092 86.3033V86.5769C232.095 86.6284 232.087 86.68 232.068 86.728C232.049 86.7761 232.02 86.8194 231.983 86.855C231.91 86.9197 231.816 86.954 231.719 86.9508H226.113V87.0967C226.131 87.5248 226.229 87.9456 226.403 88.3369C226.565 88.71 226.824 89.0327 227.152 89.2715C227.49 89.5122 227.896 89.6384 228.31 89.6317C228.643 89.6434 228.975 89.5811 229.282 89.4494C229.51 89.3505 229.721 89.2167 229.908 89.0527C230.031 88.9514 230.141 88.835 230.235 88.7062C230.293 88.6122 230.371 88.5314 230.462 88.4691C230.544 88.4359 230.632 88.4219 230.721 88.428H231.511C231.602 88.427 231.691 88.4594 231.76 88.5192C231.796 88.5495 231.823 88.5885 231.839 88.6325C231.855 88.6765 231.859 88.7239 231.851 88.77C231.815 88.9859 231.726 89.1895 231.592 89.3627C231.399 89.6264 231.166 89.8586 230.902 90.0512C230.57 90.2991 230.199 90.4887 229.804 90.612C229.326 90.7597 228.828 90.829 228.328 90.8172V90.8172ZM226.113 85.8018H230.525V85.7516C230.535 85.3043 230.445 84.8604 230.262 84.4522C230.094 84.0837 229.829 83.7684 229.495 83.5403C229.137 83.3136 228.72 83.1978 228.296 83.2075C227.876 83.1972 227.462 83.313 227.107 83.5403C226.777 83.7679 226.518 84.0838 226.358 84.4522C226.179 84.8615 226.091 85.3048 226.099 85.7516L226.113 85.8018Z" fill="#7E62E1"/>
<path d="M75.8856 66.2325C75.793 66.142 75.7198 66.0335 75.6706 65.9135C75.6214 65.7935 75.5972 65.6646 75.5996 65.5349V38.7984C75.5879 38.5271 75.6825 38.262 75.8629 38.0597C75.9552 37.9633 76.067 37.8878 76.1907 37.8383C76.3144 37.7887 76.4472 37.7663 76.5802 37.7725H86.5681C94.6099 37.7725 98.7125 41.4945 98.8759 48.9386C98.9304 50.5313 98.9576 51.5952 98.9576 52.1302C98.9576 52.6651 98.9274 53.7184 98.8669 55.2898C98.7579 59.1258 97.7288 61.9527 95.7797 63.7704C93.8305 65.5881 90.8251 66.5 86.7633 66.5061H76.5802C76.452 66.5102 76.3243 66.4881 76.2049 66.4411C76.0854 66.3941 75.9768 66.3231 75.8856 66.2325V66.2325ZM86.5545 61.7551C88.8154 61.7551 90.4513 61.249 91.4622 60.2368C92.4731 59.2246 93.0043 57.5407 93.0557 55.185C93.1102 53.5436 93.1374 52.5177 93.1374 52.1074C93.1374 51.697 93.1102 50.6833 93.0557 49.0662C93.0012 46.823 92.4428 45.174 91.3805 44.1192C90.3181 43.0645 88.6414 42.5325 86.3502 42.5234H81.3563V61.7414L86.5545 61.7551Z" fill="white"/>
<path d="M105.427 64.2993C103.638 62.5454 102.691 60.0529 102.585 56.8218L102.544 55.7959C102.544 52.3763 103.436 49.6802 105.218 47.7074C107.001 45.7347 109.475 44.7499 112.641 44.7529C115.883 44.7529 118.384 45.7378 120.146 47.7074C121.907 49.6771 122.785 52.3049 122.779 55.5907V56.4525C122.781 56.5829 122.758 56.7126 122.708 56.8334C122.659 56.9542 122.586 57.0635 122.493 57.1546C122.396 57.2504 122.281 57.3253 122.155 57.3747C122.028 57.4241 121.893 57.4469 121.757 57.4419H108.183V57.7702C108.183 59.1378 108.621 60.4692 109.431 61.5682C109.808 62.0573 110.296 62.4485 110.855 62.7087C111.413 62.969 112.026 63.0907 112.641 63.0637C113.379 63.0771 114.11 62.9127 114.772 62.5843C115.434 62.2559 116.008 61.773 116.446 61.1761C116.604 60.9579 116.801 60.7709 117.027 60.6244C117.248 60.5405 117.485 60.5048 117.721 60.5195H121.317C121.546 60.5141 121.77 60.5864 121.952 60.7247C122.039 60.7918 122.109 60.8792 122.155 60.9793C122.201 61.0794 122.222 61.1891 122.216 61.2992C122.216 61.9557 121.828 62.7293 121.054 63.6199C120.119 64.6217 118.983 65.4127 117.721 65.9407C116.134 66.6255 114.418 66.9613 112.691 66.9255C109.634 66.9255 107.213 66.0501 105.427 64.2993ZM117.14 53.9493V53.8673C117.21 52.4709 116.781 51.0953 115.932 49.9872C115.533 49.506 115.028 49.124 114.457 48.8709C113.886 48.6178 113.264 48.5005 112.641 48.5282C112.021 48.4992 111.402 48.616 110.835 48.8692C110.267 49.1225 109.767 49.5053 109.372 49.9872C108.533 51.0996 108.112 52.4736 108.183 53.8673V53.9493H117.14Z" fill="white"/>
<path d="M131.441 66.5103L134.043 65.4023V66.5103H131.441Z" fill="#7E62E1"/>
<path d="M130.578 66.5105L134.042 65.0332V65.4025L131.441 66.5105H130.578Z" fill="#7E62E1"/>
<path d="M130.211 66.5106L130.138 66.3328L134.042 64.6641V65.0334L130.578 66.5106H130.211Z" fill="#7E62E1"/>
<path d="M130.138 66.3323L130.006 66.0223L134.042 64.2988V64.6636L130.138 66.3323Z" fill="#7E62E1"/>
<path d="M130.006 66.0225L129.87 65.7079L134.042 63.9297V64.299L130.006 66.0225Z" fill="#7E62E1"/>
<path d="M129.87 65.7081L129.739 65.398L134.042 63.5605V63.9299L129.87 65.7081Z" fill="#7E62E1"/>
<path d="M129.739 65.3982L129.607 65.0836L134.042 63.1914V63.5607L129.739 65.3982Z" fill="#7E62E1"/>
<path d="M129.607 65.0837L129.475 64.7737L134.042 62.8223V63.1916L129.607 65.0837Z" fill="#7E62E1"/>
<path d="M129.475 64.7729L129.344 64.4583L134.042 62.4521V62.8215L129.475 64.7729Z" fill="#7E62E1"/>
<path d="M129.344 64.4585L129.212 64.1484L134.042 62.083V62.4523L129.344 64.4585Z" fill="#7E62E1"/>
<path d="M129.212 64.149L129.08 63.8389L134.042 61.7188V62.0835L129.212 64.149Z" fill="#7E62E1"/>
<path d="M129.08 63.8381L128.948 63.5235L134.042 61.3486V61.7179L129.08 63.8381Z" fill="#7E62E1"/>
<path d="M128.949 63.5237L128.817 63.2136L134.042 60.9795V61.3488L128.949 63.5237Z" fill="#7E62E1"/>
<path d="M128.817 63.2138L128.681 62.8992L134.042 60.6104V60.9797L128.817 63.2138Z" fill="#7E62E1"/>
<path d="M128.681 62.8994L128.549 62.5893L134.042 60.2412V60.6105L128.681 62.8994Z" fill="#7E62E1"/>
<path d="M128.549 62.5888L128.417 62.2742L134.042 59.876V60.2407L128.549 62.5888Z" fill="#7E62E1"/>
<path d="M128.418 62.2744L128.286 61.9644L134.043 59.5068V59.8762L128.418 62.2744Z" fill="#7E62E1"/>
<path d="M128.286 61.9646L128.154 61.65L134.042 59.1377V59.507L128.286 61.9646Z" fill="#7E62E1"/>
<path d="M128.154 61.6501L128.022 61.3401L134.042 58.7686V59.1379L128.154 61.6501Z" fill="#7E62E1"/>
<path d="M128.022 61.3403L127.891 61.0302L134.042 58.3994V58.7687L128.022 61.3403Z" fill="#7E62E1"/>
<path d="M127.891 61.0297L127.759 60.7151L134.042 58.0342V58.3989L127.891 61.0297Z" fill="#7E62E1"/>
<path d="M127.759 60.7153L127.627 60.4052L134.042 57.665V58.0344L127.759 60.7153Z" fill="#7E62E1"/>
<path d="M127.628 60.4054L127.496 60.0908L134.042 57.2959V57.6652L127.628 60.4054Z" fill="#7E62E1"/>
<path d="M127.496 60.091L127.36 59.781L134.042 56.9268V57.2961L127.496 60.091Z" fill="#7E62E1"/>
<path d="M127.359 59.7802L127.228 59.4656L134.042 56.5566V56.926L127.359 59.7802Z" fill="#7E62E1"/>
<path d="M127.228 59.4657L127.096 59.1557L133.947 56.2285L134.042 56.4565V56.5568L127.228 59.4657Z" fill="#7E62E1"/>
<path d="M133.814 55.9161L126.967 58.8408L127.098 59.1513L133.945 56.2266L133.814 55.9161Z" fill="#7E62E1"/>
<path d="M133.681 55.6046L126.833 58.5293L126.965 58.8398L133.812 55.9151L133.681 55.6046Z" fill="#7E62E1"/>
<path d="M133.551 55.2901L126.703 58.2148L126.835 58.5253L133.682 55.6006L133.551 55.2901Z" fill="#7E62E1"/>
<path d="M133.418 54.9786L126.57 57.9033L126.702 58.2138L133.549 55.2891L133.418 54.9786Z" fill="#7E62E1"/>
<path d="M133.283 54.67L126.436 57.5947L126.567 57.9052L133.415 54.9805L133.283 54.67Z" fill="#7E62E1"/>
<path d="M133.15 54.3585L126.303 57.2832L126.434 57.5937L133.282 54.669L133.15 54.3585Z" fill="#7E62E1"/>
<path d="M133.022 54.048L126.174 56.9727L126.306 57.2831L133.153 54.3585L133.022 54.048Z" fill="#7E62E1"/>
<path d="M132.887 53.7325L126.04 56.6572L126.171 56.9677L133.018 54.043L132.887 53.7325Z" fill="#7E62E1"/>
<path d="M132.759 53.421L125.911 56.3457L126.043 56.6562L132.89 53.7315L132.759 53.421Z" fill="#7E62E1"/>
<path d="M132.624 53.1056L125.776 56.0303L125.908 56.3408L132.755 53.4161L132.624 53.1056Z" fill="#7E62E1"/>
<path d="M132.495 52.795L125.648 55.7197L125.779 56.0302L132.627 53.1055L132.495 52.795Z" fill="#7E62E1"/>
<path d="M132.36 52.4845L125.513 55.4092L125.644 55.7197L132.492 52.795L132.36 52.4845Z" fill="#7E62E1"/>
<path d="M132.232 52.1729L125.385 55.0977L125.516 55.4081L132.363 52.4834L132.232 52.1729Z" fill="#7E62E1"/>
<path d="M132.093 51.8595L125.245 54.7842L125.377 55.0947L132.224 52.17L132.093 51.8595Z" fill="#7E62E1"/>
<path d="M125.249 54.788L125.135 54.5235V54.4643L131.963 51.5508L132.095 51.8608L125.249 54.788Z" fill="#7E62E1"/>
<path d="M125.135 54.0997L131.831 51.2363L131.963 51.5509L125.135 54.4644V54.0997Z" fill="#7E62E1"/>
<path d="M125.135 53.7298L131.7 50.9258L131.831 51.2358L125.135 54.0991V53.7298Z" fill="#7E62E1"/>
<path d="M125.135 53.3607L131.568 50.6113L131.7 50.9259L125.135 53.73V53.3607Z" fill="#7E62E1"/>
<path d="M125.135 52.9918L131.436 50.3018L131.568 50.6118L125.135 53.3611V52.9918Z" fill="#7E62E1"/>
<path d="M125.135 52.6223L131.128 50.0645H131.332L131.436 50.3016L125.135 52.9916V52.6223Z" fill="#7E62E1"/>
<path d="M125.135 52.253L130.265 50.0645H131.128L125.135 52.6223V52.253Z" fill="#7E62E1"/>
<path d="M125.135 51.8882L129.403 50.0645H130.265L125.135 52.253V51.8882Z" fill="#7E62E1"/>
<path d="M125.135 51.5189L128.54 50.0645H129.403L125.135 51.8882V51.5189Z" fill="#7E62E1"/>
<path d="M125.135 51.1496L127.677 50.0645H128.54L125.135 51.5189V51.1496Z" fill="#7E62E1"/>
<path d="M125.135 50.7803L126.815 50.0645H127.677L125.135 51.1496V50.7803Z" fill="#7E62E1"/>
<path d="M125.135 50.411L125.952 50.0645H126.815L125.135 50.7803V50.411Z" fill="#7E62E1"/>
<path d="M125.952 50.0645L125.135 50.411V50.0645H125.952Z" fill="#7E62E1"/>
<path d="M145.883 41.4747C145.806 41.3883 145.711 41.3195 145.605 41.2731C145.5 41.2267 145.385 41.2037 145.27 41.2057H141.874C141.613 41.1911 141.358 41.2795 141.161 41.4519C140.996 41.5924 140.875 41.7776 140.812 41.9853L131.604 66.3464H131.636C131.874 66.4546 132.134 66.5061 132.394 66.4969H135.5C135.822 66.5051 136.139 66.4102 136.404 66.2258C136.669 66.0414 136.869 65.7771 136.975 65.471L146.082 42.4777C146.114 42.3574 146.128 42.2329 146.123 42.1084C146.127 41.874 146.041 41.647 145.883 41.4747Z" fill="white"/>
<path d="M149.546 64.2993C147.764 62.5454 146.816 60.0529 146.704 56.8218L146.664 55.7959C146.664 52.3763 147.556 49.6802 149.342 47.7075C151.128 45.7347 153.601 44.7499 156.76 44.7529C160.008 44.7529 162.51 45.7378 164.265 47.7075C166.02 49.6771 166.9 52.3049 166.903 55.5907V56.4525C166.905 56.5829 166.881 56.7126 166.832 56.8334C166.783 56.9542 166.71 57.0635 166.617 57.1546C166.52 57.2504 166.405 57.3253 166.279 57.3747C166.152 57.4241 166.017 57.4469 165.881 57.4419H152.307V57.7702C152.304 59.1382 152.742 60.4704 153.555 61.5682C153.931 62.057 154.419 62.4479 154.976 62.7082C155.534 62.9684 156.146 63.0903 156.76 63.0637C157.499 63.0778 158.23 62.9138 158.892 62.5853C159.554 62.2569 160.128 61.7736 160.565 61.1761C160.721 60.9588 160.914 60.7718 161.137 60.6244C161.359 60.5405 161.595 60.5048 161.832 60.5195H165.432C165.659 60.5141 165.882 60.5864 166.063 60.7247C166.15 60.7916 166.22 60.8788 166.267 60.9788C166.314 61.0789 166.336 61.1888 166.331 61.2992C166.331 61.9557 165.942 62.7293 165.164 63.6199C164.229 64.6217 163.093 65.4127 161.832 65.9407C160.246 66.626 158.532 66.9618 156.806 66.9255C153.752 66.9255 151.332 66.0501 149.546 64.2993ZM161.26 53.9493V53.8673C161.329 52.4709 160.901 51.0953 160.052 49.9872C159.652 49.5057 159.147 49.1235 158.576 48.8704C158.005 48.6173 157.384 48.5002 156.76 48.5282C156.14 48.4992 155.522 48.616 154.954 48.8692C154.387 49.1225 153.886 49.5053 153.492 49.9872C152.654 51.1002 152.235 52.4742 152.307 53.8673V53.9493H161.26Z" fill="white"/>
<path d="M171.565 66.232C171.471 66.1424 171.397 66.0341 171.346 65.914C171.296 65.7939 171.272 65.6646 171.275 65.5344V38.3464C171.267 38.2123 171.289 38.0781 171.34 37.9536C171.39 37.829 171.467 37.7172 171.565 37.626C171.753 37.4494 172.003 37.3543 172.26 37.3616H175.692C175.824 37.3505 175.956 37.3684 176.08 37.414C176.204 37.4595 176.316 37.5317 176.41 37.6255C176.503 37.7192 176.575 37.8323 176.62 37.9568C176.666 38.0813 176.684 38.2143 176.673 38.3464V65.5298C176.679 65.788 176.585 66.0385 176.409 66.2274C176.317 66.3238 176.205 66.3993 176.082 66.4488C175.958 66.4984 175.825 66.5208 175.692 66.5146H172.26C172.131 66.5179 172.003 66.4945 171.883 66.4458C171.764 66.3972 171.655 66.3244 171.565 66.232V66.232Z" fill="white"/>
<path d="M183.764 64.4631C182.021 62.8156 181.081 60.5435 180.945 57.6467L180.904 55.8229L180.945 53.9992C181.081 51.1267 182.036 48.8622 183.809 47.2056C185.583 45.549 188.05 44.7207 191.209 44.7207C194.342 44.7207 196.795 45.549 198.569 47.2056C200.342 48.8622 201.296 51.1267 201.429 53.9992C201.456 54.3274 201.47 54.9354 201.47 55.8229C201.47 56.7029 201.47 57.3047 201.429 57.6467C201.293 60.5465 200.353 62.8186 198.61 64.4631C196.866 66.1075 194.4 66.9282 191.209 66.9251C187.98 66.9251 185.498 66.1045 183.764 64.4631ZM194.542 61.4219C195.32 60.51 195.734 59.1832 195.786 57.4415C195.813 57.168 195.827 56.6345 195.827 55.8366C195.827 55.0387 195.827 54.5098 195.786 54.2362C195.731 52.4854 195.309 51.151 194.519 50.2331C194.104 49.7712 193.592 49.4086 193.019 49.1719C192.446 48.9352 191.828 48.8304 191.209 48.8652C190.584 48.8274 189.958 48.9307 189.378 49.1673C188.797 49.404 188.277 49.7682 187.854 50.2331C187.065 51.1449 186.642 52.4793 186.588 54.2362L186.547 55.8366L186.588 57.4415C186.642 59.1923 187.065 60.5192 187.854 61.4219C188.278 61.8853 188.799 62.2484 189.379 62.4849C189.959 62.7215 190.584 62.8256 191.209 62.7897C191.828 62.8233 192.447 62.7179 193.02 62.4813C193.594 62.2447 194.107 61.8828 194.524 61.4219H194.542Z" fill="white"/>
<path d="M205.951 74.047C205.854 73.9559 205.778 73.8446 205.729 73.7209C205.679 73.5972 205.657 73.4642 205.665 73.3311V46.1706C205.659 46.037 205.681 45.9037 205.731 45.7795C205.78 45.6553 205.855 45.5431 205.951 45.4502C206.139 45.274 206.388 45.179 206.645 45.1857H209.914C210.05 45.1811 210.186 45.2042 210.313 45.2535C210.44 45.3029 210.556 45.3775 210.654 45.473C210.746 45.5641 210.819 45.6728 210.868 45.7926C210.917 45.9124 210.941 46.041 210.94 46.1706V47.812C212.384 45.7876 214.549 44.7754 217.437 44.7754C220.191 44.7754 222.31 45.6447 223.793 47.3834C225.276 49.1221 226.061 51.4534 226.149 54.3776C226.176 54.7058 226.19 55.1983 226.19 55.8548C226.19 56.5114 226.19 57.0083 226.149 57.3366C226.067 60.2091 225.283 62.5283 223.797 64.2943C222.311 66.0604 220.193 66.9434 217.441 66.9434C214.717 66.9434 212.634 65.9707 211.19 64.0253V73.3494C211.196 73.4807 211.175 73.6119 211.129 73.735C211.083 73.8581 211.013 73.9704 210.922 74.0652C210.827 74.1565 210.714 74.2274 210.591 74.2737C210.468 74.3199 210.336 74.3405 210.205 74.3342H206.645C206.385 74.3343 206.135 74.2311 205.951 74.047V74.047ZM220.538 57.0722C220.565 56.7986 220.578 56.3883 220.578 55.8366C220.578 55.2849 220.578 54.8791 220.538 54.6055C220.347 50.9945 218.793 49.1874 215.875 49.1844C214.322 49.1844 213.151 49.695 212.402 50.7072C211.619 51.7792 211.19 53.0708 211.176 54.4004C211.149 54.7286 211.135 55.2484 211.135 55.9597C211.135 56.6755 211.135 57.209 211.176 57.5646C211.196 58.8372 211.642 60.0661 212.443 61.0526C213.233 62.0101 214.377 62.4888 215.875 62.4888C218.802 62.4888 220.356 60.6833 220.538 57.0722Z" fill="white"/>
<path d="M232.668 64.2993C230.886 62.5454 229.938 60.0529 229.826 56.8218L229.785 55.7959C229.785 52.3763 230.678 49.6802 232.464 47.7075C234.25 45.7347 236.724 44.7499 239.887 44.7529C243.128 44.7529 245.628 45.7378 247.387 47.7075C249.145 49.6771 250.032 52.3049 250.047 55.5907V56.4525C250.05 56.5829 250.026 56.7126 249.977 56.8334C249.928 56.9542 249.854 57.0635 249.761 57.1546C249.665 57.2504 249.55 57.3253 249.423 57.3747C249.297 57.4241 249.161 57.4469 249.026 57.4419H235.429V57.7702C235.429 59.1378 235.867 60.4692 236.677 61.5682C237.054 62.0576 237.542 62.449 238.1 62.7092C238.659 62.9695 239.272 63.0911 239.887 63.0637C240.624 63.0775 241.355 62.9133 242.016 62.5848C242.677 62.2563 243.25 61.7732 243.687 61.1761C243.842 60.9588 244.036 60.7718 244.259 60.6244C244.48 60.5405 244.717 60.5048 244.953 60.5195H248.554C248.781 60.5141 249.004 60.5864 249.185 60.7247C249.272 60.7916 249.342 60.8788 249.389 60.9788C249.436 61.0789 249.457 61.1888 249.452 61.2992C249.452 61.9557 249.064 62.7293 248.286 63.6199C247.351 64.6217 246.215 65.4127 244.953 65.9407C243.368 66.626 241.654 66.9618 239.928 66.9255C236.874 66.9255 234.454 66.0501 232.668 64.2993ZM244.381 53.9493V53.8673C244.453 52.4714 244.026 51.0957 243.178 49.9872C242.777 49.5078 242.272 49.1272 241.701 48.8743C241.131 48.6214 240.51 48.503 239.887 48.5282C239.266 48.4988 238.647 48.6154 238.078 48.8687C237.51 49.122 237.008 49.505 236.613 49.9872C235.776 51.1002 235.357 52.4742 235.429 53.8673V53.9493H244.381Z" fill="white"/>
<path d="M254.646 66.2323C254.554 66.1418 254.48 66.0333 254.431 65.9133C254.382 65.7933 254.358 65.6644 254.36 65.5347V46.1708C254.355 46.0346 254.378 45.8988 254.427 45.7717C254.476 45.6447 254.551 45.5291 254.646 45.4321C254.736 45.3391 254.844 45.2656 254.964 45.2162C255.083 45.1668 255.212 45.1425 255.341 45.1449H258.673C258.809 45.1391 258.944 45.1617 259.071 45.2112C259.197 45.2607 259.312 45.336 259.408 45.4324C259.504 45.5289 259.579 45.6443 259.629 45.7714C259.678 45.8985 259.701 46.0345 259.695 46.1708V47.8532C261.057 46.0477 263.024 45.1449 265.597 45.1449H267.299C267.43 45.138 267.561 45.1579 267.685 45.2033C267.808 45.2488 267.921 45.3189 268.016 45.4093C268.107 45.5052 268.177 45.6184 268.223 45.7422C268.269 45.866 268.29 45.9977 268.284 46.1297V49.1253C268.289 49.3854 268.193 49.6371 268.016 49.8274C267.924 49.9238 267.812 49.9994 267.689 50.0489C267.565 50.0984 267.432 50.1208 267.299 50.1147H264.071C263.517 50.066 262.959 50.1398 262.436 50.3308C261.913 50.5219 261.438 50.8255 261.044 51.2204C260.651 51.6153 260.348 52.092 260.157 52.617C259.966 53.1419 259.892 53.7024 259.94 54.2592V65.5119C259.94 65.6414 259.916 65.7697 259.866 65.8895C259.817 66.0093 259.745 66.1181 259.654 66.2096C259.563 66.3012 259.454 66.3737 259.335 66.423C259.216 66.4723 259.088 66.4973 258.959 66.4967H255.327C255.202 66.5002 255.077 66.4787 254.96 66.4333C254.843 66.3879 254.737 66.3196 254.646 66.2323V66.2323Z" fill="white"/>
<path d="M77.3612 28.0291C75.291 26.0928 74.1878 23.3359 74.0516 19.7583C74.0244 19.0166 74.0107 17.8007 74.0107 16.1107C74.0107 14.4207 74.0244 13.182 74.0516 12.3948C74.1939 8.87487 75.3031 6.13921 77.3794 4.18777C79.4557 2.23632 82.3809 1.25148 86.1551 1.23324C88.3396 1.18436 90.5085 1.61378 92.511 2.49165C94.2011 3.23497 95.6576 4.4266 96.7241 5.93859C97.7194 7.38415 98.2689 9.09198 98.304 10.8491V10.9312C98.3042 11.0382 98.2802 11.1439 98.2338 11.2403C98.1874 11.3366 98.1198 11.4211 98.0362 11.4874C97.8718 11.633 97.6606 11.714 97.4414 11.7154H93.4554C93.189 11.7351 92.9249 11.6538 92.7153 11.4874C92.5105 11.2594 92.3695 10.981 92.3068 10.6804C91.8951 8.97517 91.1824 7.773 90.1684 7.07389C88.9658 6.31949 87.5624 5.95202 86.146 6.02066C82.2296 6.02066 80.1881 8.22135 80.0216 12.6227C79.9944 13.3614 79.9808 14.5058 79.9808 16.0469C79.9808 17.588 79.9808 18.7552 80.0216 19.5531C80.176 23.9514 82.2205 26.1506 86.1551 26.1506C87.5645 26.2137 88.9601 25.8482 90.1594 25.1019C91.1854 24.3998 91.9042 23.1961 92.3158 21.4908C92.3808 21.1911 92.5215 20.9132 92.7244 20.6838C92.9346 20.5191 93.1986 20.4394 93.4644 20.4604H97.4505C97.6862 20.4565 97.9141 20.5448 98.0861 20.7066C98.172 20.7831 98.2377 20.8797 98.2773 20.988C98.3169 21.0962 98.3292 21.2126 98.3131 21.3267C98.2779 23.0824 97.7284 24.7887 96.7332 26.2327C95.6667 27.7446 94.2102 28.9363 92.5201 29.6796C90.5176 30.5575 88.3487 30.9869 86.1642 30.938C82.3627 30.938 79.4284 29.9684 77.3612 28.0291Z" fill="white"/>
<path d="M104.315 28.2977C102.523 26.5377 101.573 24.0346 101.464 20.7883L101.423 19.7578C101.423 16.32 102.319 13.6102 104.111 11.6283C105.902 9.64651 108.392 8.65712 111.579 8.66016C114.838 8.66016 117.352 9.64955 119.12 11.6283C120.887 13.6071 121.769 16.2486 121.766 19.5527V20.4189C121.768 20.5493 121.744 20.6787 121.695 20.7994C121.646 20.9201 121.573 21.0295 121.48 21.1211C121.383 21.2168 121.267 21.2916 121.14 21.3409C121.012 21.3903 120.877 21.4132 120.74 21.4084H107.12V21.7366C107.118 23.111 107.558 24.4494 108.374 25.5529C108.752 26.0442 109.242 26.4373 109.803 26.6991C110.364 26.9609 110.979 27.0838 111.597 27.0575C112.339 27.072 113.073 26.9074 113.738 26.5773C114.404 26.2472 114.98 25.7614 115.42 25.1608C115.576 24.941 115.771 24.7523 115.996 24.6045C116.218 24.5207 116.454 24.4849 116.691 24.4997H120.323C120.552 24.4956 120.776 24.5695 120.958 24.7094C121.046 24.7763 121.116 24.8635 121.163 24.9636C121.209 25.0636 121.231 25.1735 121.226 25.2839C121.226 25.9465 120.836 26.7247 120.055 27.6183C119.115 28.6241 117.973 29.4182 116.704 29.9482C115.088 30.6484 113.339 30.9861 111.579 30.9376C108.528 30.9376 106.107 30.0576 104.315 28.2977ZM116.078 17.9021V17.8201C116.149 16.4171 115.719 15.0348 114.866 13.9217C114.463 13.4383 113.955 13.0543 113.381 12.7997C112.808 12.5451 112.183 12.4267 111.556 12.4536C110.933 12.425 110.312 12.5428 109.742 12.7977C109.172 13.0525 108.669 13.4374 108.274 13.9217C107.432 15.0401 107.009 16.4201 107.08 17.8201V17.9021H116.078Z" fill="white"/>
<path d="M126.057 30.2356C125.964 30.1444 125.89 30.0351 125.841 29.9143C125.792 29.7935 125.768 29.6639 125.771 29.5334V10.1056C125.765 9.9687 125.788 9.83212 125.837 9.7043C125.886 9.57648 125.961 9.46013 126.057 9.36244C126.147 9.26865 126.256 9.19441 126.376 9.14424C126.496 9.09407 126.626 9.06902 126.756 9.07065H130.124C130.261 9.06635 130.397 9.09001 130.524 9.14017C130.651 9.19034 130.767 9.26595 130.864 9.36244C130.96 9.46013 131.035 9.57648 131.084 9.7043C131.133 9.83212 131.156 9.9687 131.15 10.1056V11.7972C132.521 9.97341 134.489 9.06152 137.052 9.06152H138.778C138.91 9.05565 139.042 9.07644 139.166 9.12264C139.29 9.16885 139.403 9.23954 139.499 9.33054C139.59 9.42735 139.659 9.54145 139.705 9.66602C139.75 9.7906 139.77 9.92307 139.763 10.0555V13.0647C139.769 13.3242 139.675 13.5761 139.499 13.7669C139.406 13.8632 139.293 13.9385 139.169 13.988C139.045 14.0375 138.911 14.0601 138.778 14.0541H135.531C134.975 14.0069 134.415 14.0824 133.89 14.2752C133.366 14.468 132.889 14.7735 132.495 15.1704C132.1 15.5673 131.796 16.0459 131.605 16.5729C131.413 17.0999 131.339 17.6625 131.386 18.2214V29.5243C131.386 29.6546 131.361 29.7836 131.311 29.904C131.261 30.0243 131.188 30.1336 131.096 30.2255C131.004 30.3175 130.895 30.3902 130.775 30.4397C130.655 30.4892 130.527 30.5143 130.397 30.5137H126.742C126.615 30.5153 126.489 30.4915 126.372 30.4437C126.254 30.396 126.147 30.3252 126.057 30.2356V30.2356Z" fill="white"/>
<path d="M146.718 28.567C145.46 27.2584 144.829 25.3435 144.829 22.8084V13.4889H143.222C143.092 13.4889 142.964 13.4632 142.844 13.4132C142.724 13.3632 142.616 13.2899 142.524 13.1975C142.432 13.1052 142.36 12.9955 142.311 12.875C142.261 12.7544 142.236 12.6253 142.237 12.495V10.0648C142.234 9.93431 142.258 9.80467 142.307 9.68389C142.357 9.56311 142.43 9.45375 142.523 9.36262C142.614 9.26883 142.722 9.19459 142.843 9.14442C142.963 9.09425 143.092 9.0692 143.222 9.07083H144.829V2.23167C144.822 2.09751 144.844 1.96336 144.894 1.83883C144.945 1.71429 145.022 1.60243 145.12 1.51127C145.307 1.33381 145.557 1.23724 145.815 1.24226H149.224C149.356 1.23614 149.488 1.2568 149.612 1.30301C149.736 1.34923 149.85 1.42006 149.946 1.51127C150.036 1.60724 150.106 1.72056 150.151 1.84438C150.196 1.9682 150.216 2.09995 150.209 2.23167V9.07083H155.344C155.606 9.07202 155.857 9.17713 156.042 9.36328C156.228 9.54942 156.332 9.80153 156.334 10.0648V12.495C156.335 12.6257 156.311 12.7555 156.261 12.8762C156.211 12.997 156.137 13.1062 156.043 13.1971C155.953 13.292 155.845 13.367 155.724 13.4172C155.604 13.4675 155.474 13.4919 155.344 13.4889H150.209V22.357C150.15 23.2921 150.364 24.2242 150.827 25.038C151.057 25.3499 151.364 25.5974 151.716 25.757C152.069 25.9166 152.457 25.983 152.842 25.9499H155.716C155.848 25.938 155.982 25.9554 156.107 26.001C156.232 26.0465 156.345 26.119 156.439 26.2133C156.533 26.3077 156.605 26.4216 156.65 26.547C156.696 26.6725 156.713 26.8064 156.701 26.9393V29.5381C156.707 29.7984 156.611 30.0505 156.433 30.2403C156.341 30.3367 156.229 30.4122 156.106 30.4617C155.982 30.5113 155.849 30.5337 155.716 30.5275H152.347C149.857 30.5245 147.98 29.871 146.718 28.567Z" fill="white"/>
<path d="M160.156 5.27735C160.063 5.18621 159.99 5.07687 159.941 4.95609C159.891 4.83531 159.867 4.70566 159.87 4.57519V1.56597C159.865 1.42904 159.887 1.29244 159.937 1.16462C159.986 1.0368 160.06 0.920463 160.156 0.822776C160.247 0.728981 160.356 0.654729 160.476 0.604558C160.596 0.554387 160.725 0.529344 160.855 0.530965H164.633C164.769 0.525852 164.906 0.549123 165.033 0.599326C165.16 0.64953 165.276 0.725588 165.373 0.822735C165.469 0.919881 165.545 1.03603 165.595 1.16391C165.645 1.2918 165.668 1.42868 165.663 1.56597V4.57519C165.666 4.70773 165.639 4.83921 165.586 4.96047C165.533 5.08174 165.454 5.18988 165.354 5.27735C165.16 5.46395 164.901 5.56702 164.633 5.56459H160.855C160.726 5.56681 160.597 5.54248 160.476 5.4931C160.356 5.44372 160.247 5.37032 160.156 5.27735V5.27735ZM160.32 30.2357C160.227 30.1446 160.153 30.0352 160.104 29.9145C160.055 29.7937 160.031 29.664 160.034 29.5336V10.0648C160.027 9.93046 160.05 9.79639 160.099 9.6714C160.148 9.54642 160.224 9.43338 160.32 9.33981C160.509 9.16249 160.76 9.06604 161.019 9.0708H164.51C164.64 9.06918 164.769 9.09423 164.889 9.1444C165.01 9.19457 165.118 9.26881 165.209 9.3626C165.302 9.45373 165.376 9.56309 165.425 9.68387C165.474 9.80465 165.498 9.93429 165.495 10.0648V29.5336C165.496 29.6638 165.472 29.793 165.423 29.9136C165.374 30.0342 165.301 30.1438 165.209 30.2359C165.118 30.328 165.009 30.4008 164.888 30.4501C164.768 30.4994 164.64 30.5242 164.51 30.523H161.019C160.888 30.5258 160.758 30.5018 160.637 30.4524C160.516 30.403 160.407 30.3293 160.315 30.2357H160.32Z" fill="white"/>
<path d="M173.172 30.2351C173.079 30.144 173.006 30.0347 172.957 29.9139C172.908 29.7931 172.884 29.6635 172.886 29.533V13.4883H169.559C169.429 13.4883 169.3 13.4626 169.181 13.4126C169.061 13.3626 168.952 13.2893 168.86 13.1969C168.769 13.1046 168.696 12.995 168.647 12.8744C168.598 12.7538 168.573 12.6247 168.573 12.4944V10.0642C168.571 9.93371 168.595 9.80407 168.644 9.68329C168.693 9.56251 168.766 9.45316 168.859 9.36202C168.95 9.26823 169.059 9.19399 169.179 9.14382C169.299 9.09365 169.428 9.0686 169.559 9.07023H172.868V7.41515C172.868 4.91049 173.539 3.0472 174.879 1.82527C176.22 0.603338 178.248 -0.00458705 180.963 0.0014922H189.484C189.616 -0.00589471 189.748 0.0142016 189.871 0.0605028C189.995 0.106804 190.107 0.178303 190.202 0.270498C190.293 0.366091 190.363 0.479242 190.409 0.603077C190.455 0.726913 190.476 0.858859 190.47 0.990897V3.42564C190.471 3.55636 190.446 3.68604 190.396 3.80676C190.346 3.92749 190.272 4.03672 190.179 4.12779C190.089 4.22085 189.981 4.29435 189.861 4.34376C189.742 4.39317 189.614 4.41744 189.484 4.41504H181.185C180.12 4.41504 179.363 4.67645 178.915 5.19927C178.461 5.7236 178.257 6.53518 178.257 7.63401V9.07479H189.484C189.616 9.06849 189.747 9.08909 189.871 9.13533C189.994 9.18157 190.107 9.2525 190.202 9.3438C190.293 9.44038 190.363 9.55434 190.409 9.67889C190.455 9.80345 190.476 9.93604 190.47 10.0687V29.5375C190.475 29.7978 190.379 30.0499 190.202 30.2397C190.109 30.3361 189.998 30.4116 189.874 30.4612C189.75 30.5107 189.618 30.5331 189.484 30.527H186.07C185.941 30.5293 185.813 30.5051 185.693 30.4557C185.574 30.4063 185.466 30.3328 185.376 30.2397C185.281 30.1495 185.207 30.0404 185.157 29.9195C185.107 29.7986 185.082 29.6685 185.085 29.5375V13.4883H178.275V29.533C178.283 29.7927 178.188 30.0449 178.012 30.2351C177.919 30.3314 177.806 30.4068 177.682 30.4563C177.557 30.5058 177.424 30.5283 177.29 30.5224H173.881C173.749 30.5256 173.619 30.5017 173.497 30.4523C173.375 30.4029 173.265 30.329 173.172 30.2351V30.2351Z" fill="white"/>
<path d="M197.511 28.2977C195.719 26.5347 194.769 24.0315 194.66 20.7883L194.619 19.7578C194.619 16.32 195.516 13.6102 197.311 11.6283C199.106 9.64651 201.591 8.65712 204.766 8.66016C208.025 8.66016 210.539 9.64955 212.307 11.6283C214.074 13.6071 214.956 16.2486 214.953 19.5527V20.419C214.955 20.5493 214.931 20.6787 214.882 20.7994C214.833 20.9201 214.76 21.0295 214.667 21.1211C214.57 21.2168 214.454 21.2916 214.327 21.3409C214.199 21.3903 214.064 21.4132 213.927 21.4084H200.307V21.7366C200.305 23.111 200.745 24.4494 201.56 25.5529C201.939 26.0442 202.429 26.4373 202.99 26.6991C203.551 26.9609 204.166 27.0838 204.784 27.0575C205.526 27.072 206.26 26.9074 206.925 26.5773C207.591 26.2472 208.167 25.7614 208.606 25.1608C208.763 24.941 208.958 24.7523 209.183 24.6045C209.405 24.5207 209.641 24.4849 209.878 24.4997H213.51C213.739 24.4963 213.963 24.5701 214.145 24.7094C214.233 24.7763 214.303 24.8635 214.349 24.9636C214.396 25.0636 214.418 25.1735 214.413 25.2839C214.413 25.9465 214.023 26.7247 213.242 27.6183C212.302 28.6241 211.16 29.4182 209.891 29.9482C208.297 30.6381 206.574 30.9755 204.838 30.9376C201.751 30.9376 199.309 30.0576 197.511 28.2977ZM209.283 17.9021V17.8201C209.354 16.4171 208.924 15.0348 208.071 13.9217C207.668 13.4383 207.161 13.0543 206.587 12.7997C206.013 12.5451 205.388 12.4267 204.761 12.4536C204.138 12.425 203.517 12.5428 202.947 12.7977C202.377 13.0525 201.874 13.4374 201.479 13.9217C200.634 15.0384 200.211 16.4197 200.285 17.8201V17.9021H209.283Z" fill="white"/>
<path d="M220.538 28.2752C219.058 26.503 218.25 24.1321 218.113 21.1624L218.073 19.7946L218.113 18.4268C218.222 15.5118 219.023 13.1545 220.515 11.3551C222.007 9.55561 224.133 8.6574 226.894 8.66044C229.524 8.66044 231.62 9.57233 233.181 11.3961V2.2225C233.175 2.08889 233.198 1.95552 233.247 1.83128C233.296 1.70705 233.371 1.59482 233.467 1.50211C233.656 1.32396 233.908 1.22737 234.167 1.23311H237.74C237.872 1.22124 238.005 1.23868 238.13 1.2842C238.255 1.32973 238.368 1.40222 238.462 1.49658C238.556 1.59093 238.629 1.70484 238.674 1.83027C238.719 1.9557 238.737 2.08959 238.725 2.2225V29.5336C238.73 29.7938 238.634 30.0459 238.457 30.2357C238.365 30.3321 238.253 30.4076 238.129 30.4572C238.005 30.5067 237.873 30.5291 237.74 30.523H234.412C234.282 30.5242 234.153 30.4994 234.033 30.4501C233.913 30.4008 233.804 30.328 233.712 30.2359C233.621 30.1438 233.548 30.0342 233.499 29.9136C233.45 29.793 233.425 29.6638 233.427 29.5336V28.0107C231.913 29.9622 229.736 30.9379 226.894 30.9379C224.136 30.9379 222.018 30.0503 220.538 28.2752ZM231.938 24.9741C232.716 23.8844 233.153 22.5854 233.191 21.2445C233.213 20.9116 233.231 20.3919 233.231 19.6761C233.231 18.9602 233.231 18.3948 233.191 18.0666C233.169 16.7873 232.719 15.5525 231.915 14.5604C231.122 13.5968 229.972 13.115 228.464 13.115C225.532 13.115 223.971 14.9312 223.784 18.5635L223.738 19.7992L223.784 21.0348C223.974 24.6823 225.535 26.4985 228.464 26.4833C230.026 26.4833 231.184 25.9802 231.938 24.9741Z" fill="white"/>
<path d="M257.602 30.2352C257.509 30.1441 257.435 30.0347 257.386 29.9139C257.337 29.7932 257.313 29.6635 257.316 29.5331V6.80423H249.716C249.585 6.80723 249.456 6.78281 249.336 6.73256C249.215 6.68231 249.107 6.60732 249.017 6.51242C248.921 6.41543 248.847 6.29986 248.798 6.17283C248.748 6.0458 248.726 5.91 248.731 5.7738V2.67793C248.719 2.4053 248.814 2.13887 248.994 1.93475C249.087 1.83823 249.2 1.76269 249.324 1.71317C249.449 1.66365 249.582 1.64127 249.716 1.64751H270.704C270.84 1.64208 270.976 1.66477 271.104 1.71417C271.231 1.76357 271.347 1.83865 271.444 1.93475C271.54 2.03237 271.615 2.14859 271.665 2.27635C271.715 2.40411 271.739 2.54074 271.735 2.67793V5.7738C271.739 5.91029 271.715 6.04621 271.665 6.17322C271.615 6.30023 271.54 6.41565 271.444 6.51242C271.348 6.61002 271.232 6.68638 271.105 6.73662C270.977 6.78687 270.841 6.80989 270.704 6.80423H263.145V29.5331C263.152 29.7927 263.058 30.0449 262.882 30.2352C262.789 30.3317 262.676 30.4073 262.552 30.4568C262.427 30.5063 262.294 30.5287 262.16 30.5224H258.301C258.171 30.5252 258.042 30.5011 257.922 30.4517C257.801 30.4023 257.692 30.3286 257.602 30.2352V30.2352Z" fill="white"/>
<path d="M273.928 28.2977C272.133 26.5377 271.182 24.0346 271.077 20.7883L271.036 19.7578C271.036 16.32 271.932 13.6102 273.723 11.6283C275.515 9.64651 278 8.65712 281.178 8.66016C284.438 8.66016 286.951 9.64955 288.719 11.6283C290.486 13.6071 291.367 16.2486 291.361 19.5527V20.4189C291.363 20.5493 291.339 20.6787 291.29 20.7994C291.24 20.9201 291.167 21.0295 291.075 21.1211C290.978 21.2172 290.862 21.2923 290.735 21.3417C290.607 21.3911 290.471 21.4138 290.335 21.4083H276.715V21.7366C276.713 23.111 277.152 24.4494 277.968 25.5529C278.347 26.0442 278.837 26.4373 279.398 26.6991C279.958 26.9609 280.574 27.0838 281.192 27.0575C281.933 27.072 282.668 26.9073 283.333 26.5773C283.998 26.2472 284.575 25.7614 285.014 25.1608C285.17 24.941 285.366 24.7523 285.591 24.6045C285.812 24.5207 286.049 24.4849 286.285 24.4996H289.917C290.147 24.4956 290.371 24.5695 290.553 24.7094C290.64 24.7763 290.711 24.8635 290.757 24.9636C290.804 25.0636 290.826 25.1735 290.821 25.2839C290.821 25.9465 290.43 26.7247 289.649 27.6183C288.709 28.6241 287.567 29.4182 286.299 29.9482C284.706 30.6376 282.985 30.975 281.251 30.9376C278.163 30.9376 275.722 30.0576 273.928 28.2977ZM285.7 17.9021V17.8201C285.771 16.4171 285.341 15.0348 284.488 13.9217C284.085 13.4383 283.577 13.0543 283.003 12.7997C282.429 12.5451 281.805 12.4267 281.178 12.4536C280.555 12.425 279.934 12.5428 279.364 12.7977C278.794 13.0525 278.291 13.4374 277.896 13.9217C277.054 15.0401 276.631 16.4201 276.702 17.8201V17.9021H285.7Z" fill="white"/>
<path d="M297.426 28.4213C295.631 26.7434 294.68 24.4196 294.571 21.4499L294.53 19.7994L294.571 18.1488C294.68 15.1791 295.631 12.8553 297.426 11.1775C299.221 9.49959 301.624 8.66066 304.636 8.66066C306.529 8.60372 308.409 8.99907 310.12 9.8142C311.454 10.451 312.601 11.4251 313.448 12.641C314.108 13.5842 314.512 14.6844 314.619 15.8326C314.633 15.9627 314.617 16.0942 314.57 16.2163C314.523 16.3385 314.448 16.4477 314.351 16.5348C314.158 16.7227 313.899 16.8273 313.629 16.8266H309.997C309.763 16.8461 309.529 16.7797 309.339 16.6397C309.157 16.4428 309.018 16.2098 308.931 15.9558C308.627 15.0504 308.061 14.2566 307.305 13.676C306.543 13.1805 305.647 12.9351 304.74 12.9739C304.133 12.9402 303.525 13.0412 302.961 13.2698C302.397 13.4983 301.89 13.8487 301.476 14.2961C300.695 15.1746 300.277 16.5211 300.223 18.3358L300.182 19.8632L300.223 21.231C300.386 24.8056 301.892 26.5929 304.74 26.5929C305.651 26.6349 306.554 26.398 307.328 25.9136C308.077 25.3319 308.636 24.5377 308.931 23.6339C309.007 23.387 309.141 23.162 309.321 22.9773C309.513 22.8252 309.754 22.7504 309.997 22.7676H313.629C313.899 22.7668 314.158 22.8715 314.351 23.0594C314.448 23.1465 314.523 23.2557 314.57 23.3778C314.617 23.5 314.633 23.6315 314.619 23.7615C314.505 24.8812 314.108 25.953 313.466 26.8756C312.632 28.0981 311.501 29.0855 310.179 29.7435C308.457 30.5935 306.553 31.0038 304.636 30.9381C301.621 30.9381 299.218 30.0991 297.426 28.4213Z" fill="white"/>
<path d="M318.492 30.2357C318.399 30.1446 318.325 30.0352 318.276 29.9145C318.227 29.7937 318.203 29.664 318.206 29.5336V2.2225C318.199 2.08889 318.222 1.95552 318.271 1.83128C318.32 1.70705 318.396 1.59482 318.492 1.50211C318.681 1.32521 318.932 1.22882 319.191 1.23311H322.932C323.064 1.22124 323.197 1.23868 323.322 1.2842C323.447 1.32973 323.561 1.40222 323.654 1.49658C323.748 1.59093 323.821 1.70484 323.866 1.83027C323.911 1.9557 323.929 2.08959 323.917 2.2225V11.6286C325.56 9.64983 327.764 8.66044 330.527 8.66044C333.048 8.66044 335.062 9.49178 336.57 11.1545C338.077 12.8171 338.834 15.0801 338.84 17.9435V29.5336C338.843 29.6626 338.822 29.7911 338.776 29.9116C338.73 30.0321 338.66 30.1423 338.572 30.2357C338.479 30.3321 338.368 30.4076 338.244 30.4572C338.12 30.5067 337.987 30.5291 337.854 30.523H334.118C333.982 30.5284 333.846 30.5057 333.718 30.4563C333.591 30.4069 333.475 30.3318 333.378 30.2357C333.284 30.1448 333.21 30.0356 333.16 29.9149C333.11 29.7941 333.086 29.6643 333.088 29.5336V18.1897C333.088 16.5939 332.702 15.3491 331.921 14.4555C331.14 13.5618 330.023 13.115 328.57 13.115C327.944 13.0898 327.32 13.1987 326.739 13.4346C326.158 13.6704 325.634 14.0278 325.202 14.4828C324.311 15.5056 323.855 16.8378 323.93 18.1942V29.5381C323.936 29.7984 323.84 30.0505 323.663 30.2403C323.57 30.3367 323.459 30.4122 323.335 30.4617C323.211 30.5113 323.078 30.5337 322.945 30.5275H319.191C319.061 30.5289 318.932 30.5037 318.811 30.4536C318.691 30.4034 318.582 30.3293 318.492 30.2357V30.2357Z" fill="white"/>
<path d="M29.4734 3.51375e-07C23.6448 -0.000901451 17.9469 1.73407 13.1001 4.9855C8.25342 8.23692 4.47562 12.8588 2.2445 18.2665C0.0133766 23.6743 -0.570854 29.6251 0.565695 35.3663C1.70224 41.1075 4.50852 46.3813 8.62963 50.5208C12.7507 54.6602 18.0016 57.4793 23.7181 58.6217C29.4346 59.764 35.36 59.1781 40.745 56.9383C46.13 54.6984 50.7327 50.9051 53.971 46.0381C57.2092 41.1711 58.9377 35.4489 58.9377 29.5953C58.9383 25.709 58.1766 21.8607 56.6961 18.27C55.2157 14.6794 53.0455 11.4168 50.3094 8.66854C47.5733 5.9203 44.325 3.74026 40.7499 2.2529C37.1749 0.76554 33.3431 3.05241e-07 29.4734 3.51375e-07V3.51375e-07ZM42.3532 14.6404L30.3859 44.8695C30.2467 45.2703 29.9845 45.6165 29.637 45.8582C29.2894 46.0999 28.8745 46.2247 28.4519 46.2145H24.3659C24.0224 46.2275 23.6805 46.1604 23.3671 46.0184H23.3308L23.3535 45.95L23.2491 45.8862C22.938 45.616 22.6979 45.2731 22.55 44.8877L15 26.2989C14.9573 26.1415 14.9389 25.9785 14.9455 25.8155C14.944 25.6599 14.9742 25.5055 15.0343 25.362C15.0944 25.2185 15.1832 25.0889 15.2951 24.9812C15.3932 24.8718 15.5129 24.7842 15.6465 24.7237C15.7802 24.6633 15.9249 24.6314 16.0714 24.6301H20.5297C20.8515 24.6116 21.1701 24.7029 21.4338 24.8891C21.6976 25.0753 21.8909 25.3456 21.9825 25.656L26.4316 37.7886L35.4207 13.9975C35.5035 13.7253 35.6608 13.482 35.8747 13.2953C36.1348 13.07 36.4714 12.954 36.8145 12.9716H41.2682C41.4201 12.9684 41.5709 12.9981 41.7103 13.0587C41.8498 13.1193 41.9746 13.2093 42.0763 13.3227C42.2877 13.5481 42.4034 13.8474 42.3986 14.1571C42.4077 14.3195 42.3924 14.4825 42.3532 14.6404V14.6404Z" fill="white"/>
<path d="M22.6274 47.0877L26.4833 45.4453V47.0877H22.6274Z" fill="#6348BE"/>
<path d="M21.3457 47.0878L26.4835 44.9014V45.4454L22.6276 47.0878H21.3457Z" fill="#6348BE"/>
<path d="M21.2073 47.088L21.033 46.6773L26.4835 44.3574V44.9015L21.3457 47.088H21.2073Z" fill="#6449C0"/>
<path d="M21.0327 46.6774L20.8379 46.2155L26.4833 43.8135V44.3575L21.0327 46.6774Z" fill="#654AC1"/>
<path d="M20.8382 46.2156L20.6433 45.7537L26.4836 43.2695V43.8136L20.8382 46.2156Z" fill="#674BC3"/>
<path d="M20.6433 45.7531L20.4485 45.2911L26.4836 42.7197V43.2689L20.6433 45.7531Z" fill="#684DC4"/>
<path d="M20.4483 45.2913L20.2483 44.8293L26.4834 42.1758V42.7198L20.4483 45.2913Z" fill="#694EC6"/>
<path d="M20.2486 44.8294L20.0537 44.3675L26.4836 41.6318V42.1759L20.2486 44.8294Z" fill="#6A4FC7"/>
<path d="M20.0535 44.3676L19.8586 43.9108L26.4834 41.0879V41.6319L20.0535 44.3676Z" fill="#6B50C9"/>
<path d="M19.8587 43.9109L19.6638 43.449L26.4834 40.5439V41.088L19.8587 43.9109Z" fill="#6D51CA"/>
<path d="M19.6638 43.4491L19.4639 42.9872L26.4834 40V40.5441L19.6638 43.4491Z" fill="#6E52CC"/>
<path d="M19.4639 42.9875L19.269 42.5256L26.4835 39.4512V40.0004L19.4639 42.9875Z" fill="#6F53CD"/>
<path d="M19.2688 42.5247L19.074 42.0628L26.4833 38.9062V39.4503L19.2688 42.5247Z" fill="#7054CF"/>
<path d="M19.0742 42.0629L18.8794 41.601L26.4835 38.3623V38.9064L19.0742 42.0629Z" fill="#7155D0"/>
<path d="M18.8794 41.6011L18.6846 41.1391L26.4835 37.8184V38.3624L18.8794 41.6011Z" fill="#7256D2"/>
<path d="M18.6846 41.1392L18.4846 40.6773L26.4836 37.2744V37.8185L18.6846 41.1392Z" fill="#7357D3"/>
<path d="M18.4846 40.6774L18.2898 40.2155L26.4836 36.7305V37.2745L18.4846 40.6774Z" fill="#7458D4"/>
<path d="M18.2896 40.2159L18.0947 39.7539L26.4834 36.1816V36.7308L18.2896 40.2159Z" fill="#7559D6"/>
<path d="M18.0945 39.7531L17.8945 39.2911L26.4831 35.6367V36.1808L18.0945 39.7531Z" fill="#765AD7"/>
<path d="M17.8948 39.2912L17.7 38.8344L26.4834 35.0928V35.6368L17.8948 39.2912Z" fill="#775BD8"/>
<path d="M17.7 38.8345L17.5051 38.3726L26.4834 34.5488V35.0929L17.7 38.8345Z" fill="#785CD9"/>
<path d="M17.5054 38.3727L17.3105 37.9108L26.4837 34.0049V34.5489L17.5054 38.3727Z" fill="#795DDB"/>
<path d="M17.3103 37.9109L17.1155 37.449L26.4835 33.4609V34.005L17.3103 37.9109Z" fill="#7A5EDC"/>
<path d="M17.1153 37.4493L16.9153 36.9873L26.3909 32.9531L26.4832 33.1738V33.4613L17.1153 37.4493Z" fill="#7B5EDD"/>
<path d="M26.1977 32.4869L16.7229 36.5205L16.9196 36.9834L26.3943 32.9498L26.1977 32.4869Z" fill="#7B5FDE"/>
<path d="M25.997 32.027L16.5222 36.0605L16.7189 36.5234L26.1937 32.4898L25.997 32.027Z" fill="#7C60DF"/>
<path d="M25.8014 31.566L16.3267 35.5996L16.5233 36.0625L25.9981 32.0289L25.8014 31.566Z" fill="#7D61E0"/>
<path d="M25.6105 31.1041L16.1357 35.1377L16.3324 35.6006L25.8072 31.567L25.6105 31.1041Z" fill="#7E62E1"/>
<path d="M25.415 30.6422L15.9402 34.6758L16.1368 35.1386L25.6116 31.1051L25.415 30.6422Z" fill="#7F62E2"/>
<path d="M25.2162 30.1871L15.7415 34.2207L15.9381 34.6836L25.4129 30.65L25.2162 30.1871Z" fill="#8063E3"/>
<path d="M25.0204 29.7262L15.5457 33.7598L15.7423 34.2226L25.2171 30.1891L25.0204 29.7262Z" fill="#8064E4"/>
<path d="M24.8246 29.2643L15.3499 33.2979L15.5465 33.7607L25.0213 29.7271L24.8246 29.2643Z" fill="#8164E5"/>
<path d="M24.6288 28.7975L15.1541 32.8311L15.3507 33.2939L24.8255 29.2603L24.6288 28.7975Z" fill="#8265E6"/>
<path d="M24.4284 28.3375L14.9536 32.3711L15.1503 32.834L24.625 28.8004L24.4284 28.3375Z" fill="#8266E7"/>
<path d="M24.2372 27.8756L14.7625 31.9092L14.9591 32.372L24.4339 28.3385L24.2372 27.8756Z" fill="#8366E8"/>
<path d="M24.0414 27.4147L14.5667 31.4482L14.7633 31.9111L24.2381 27.8775L24.0414 27.4147Z" fill="#8467E9"/>
<path d="M23.8459 26.9527L14.3711 30.9863L14.5678 31.4492L24.0425 27.4156L23.8459 26.9527Z" fill="#8468EA"/>
<path d="M23.6501 26.4908L14.1753 30.5244L14.372 30.9873L23.8467 26.9537L23.6501 26.4908Z" fill="#8568EA"/>
<path d="M23.4494 26.0309L13.9746 30.0645L14.1713 30.5273L23.646 26.4937L23.4494 26.0309Z" fill="#8669EB"/>
<path d="M23.2538 25.5641L13.7791 29.5977L13.9757 30.0605L23.4505 26.0269L23.2538 25.5641Z" fill="#8669EC"/>
<path d="M23.0597 25.108L13.585 29.1416L13.7816 29.6045L23.2564 25.5709L23.0597 25.108Z" fill="#876AED"/>
<path d="M22.8639 24.6461L13.3892 28.6797L13.5858 29.1426L23.0606 25.109L22.8639 24.6461Z" fill="#876AED"/>
<path d="M13.3877 28.6827L13.2698 28.4055V28.1848L22.6634 24.1865L22.8634 24.6485L13.3877 28.6827Z" fill="#886BEE"/>
<path d="M13.2698 27.6408L22.4686 23.7246L22.6634 24.1865L13.2698 28.1848V27.6408Z" fill="#886BEE"/>
<path d="M13.2698 27.0967L22.2737 23.2627L22.4686 23.7246L13.2698 27.6408V27.0967Z" fill="#886BEF"/>
<path d="M13.2698 26.5527L22.0789 22.8008L22.2737 23.2627L13.2698 27.0967V26.5527Z" fill="#896CEF"/>
<path d="M13.2698 26.0084L20.8842 22.7646H22.0635L22.0789 22.8006L13.2698 26.5525V26.0084Z" fill="#896CF0"/>
<path d="M13.2698 25.4593L19.6023 22.7646H20.8842L13.2698 26.0084V25.4593Z" fill="#896CF0"/>
<path d="M13.2698 24.9152L18.3204 22.7646H19.6023L13.2698 25.4593V24.9152Z" fill="#8A6DF0"/>
<path d="M13.2698 24.3711L17.0436 22.7646H18.3204L13.2698 24.9152V24.3711Z" fill="#8A6DF1"/>
<path d="M13.2698 23.8271L15.7618 22.7646H17.0436L13.2698 24.3711V23.8271Z" fill="#8A6DF1"/>
<path d="M13.2698 23.283L14.485 22.7646H15.7618L13.2698 23.8271V23.283Z" fill="#8A6DF1"/>
<path d="M14.485 22.7646L13.2698 23.283V22.7646H14.485Z" fill="#8A6DF1"/>
<path d="M43.6434 10.0558C43.5273 9.92872 43.3852 9.82771 43.2267 9.75956C43.0681 9.69141 42.8967 9.65767 42.724 9.6606H37.6515C37.2616 9.64396 36.8798 9.7741 36.5823 10.025C36.3412 10.2371 36.1626 10.5103 36.0657 10.8154L22.3049 46.841L22.3514 46.8667C22.7085 47.0248 23.0971 47.1002 23.4878 47.0874H28.1367C28.6206 47.0963 29.0947 46.9518 29.4903 46.6749C29.8859 46.3981 30.1826 46.0032 30.3372 45.5476L43.9379 11.5391C43.9865 11.362 44.0074 11.1785 43.9999 10.9951C44.0059 10.6483 43.8784 10.3123 43.6434 10.0558Z" fill="#4DE4CF"/>
</svg>
