<?xml version="1.0" encoding="UTF-8"?> <svg xmlns="http://www.w3.org/2000/svg" viewBox="0 0 134.01 33.07"> <defs> <style>.cls-1{fill:#fff;}</style> </defs> <title>Solvd_logo3Asset 1</title> <g id="Layer_2" data-name="Layer 2"> <g id="Layer_1-2" data-name="Layer 1"> <path class="cls-1" d="M16.73,30.82a11.07,11.07,0,0,1-7,2A14.12,14.12,0,0,1,0,29.28l2.8-4.42a12.55,12.55,0,0,0,6.8,2.79c1.87,0,3.17-.46,3.17-2s-3.36-2.23-4.19-2.51a25.73,25.73,0,0,1-3.27-1.07,6.18,6.18,0,0,1-3.91-6c0-4.47,3.91-7.22,8.71-7.22a13.28,13.28,0,0,1,8.81,2.84L16.5,16.09a11.34,11.34,0,0,0-5.78-2.23C9,13.86,8,14.32,8,15.53s1.77,1.78,3.36,2.24,2.28.7,3.26,1.07a9.17,9.17,0,0,1,3,1.73,6.37,6.37,0,0,1,1.86,4.66A6.92,6.92,0,0,1,16.73,30.82Z"></path> <path class="cls-1" d="M36.51,32.69C44,32.69,49,28,49,21S44,9.32,36.51,9.32,24,14,24,21,29,32.69,36.51,32.69Zm0-17.77c3.26,0,5.22,2.57,5.22,6s-2,6-5.22,6-5.22-2.57-5.22-6S33.2,14.92,36.51,14.92Z"></path> <path class="cls-1" d="M62.13,32.58H54.68V.43h7.45Z"></path> <path class="cls-1" d="M120.27,0h-6.54V12c-1.13-1.54-4.07-2.52-6.27-2.52-7.48,0-12.2,4.68-12.2,11.68s5,11.66,12.5,11.66,12.38-4.62,12.45-11.52a4.2,4.2,0,0,0,.06-.62ZM107.76,27c-3.31,0-5.22-2.57-5.22-6s1.91-6,5.22-6S113,17.59,113,21,111,27,107.76,27Z"></path> <path class="cls-1" d="M92.59,9.61l-9.46,23h-7l-9.41-23H74.5l5.22,14.54L84.9,9.61Z"></path> <circle class="cls-1" cx="129.69" cy="28.75" r="4.32"></circle> </g> </g> </svg> 